<svg xmlns="http://www.w3.org/2000/svg" xmlns:xlink="http://www.w3.org/1999/xlink" fill="none" version="1.1" width="150" height="150" viewBox="0 0 150 150"><defs><filter id="master_svg0_123_06192" filterUnits="objectBoundingBox" color-interpolation-filters="sRGB" x="0" y="0" width="61.57670211791992" height="55.39772415161133"><feFlood flood-opacity="0" result="BackgroundImageFix"/><feBlend mode="normal" in="SourceGraphic" in2="BackgroundImageFix" result="shape"/><feColorMatrix in="SourceAlpha" type="matrix" result="hardAlpha" values="0 0 0 0 0 0 0 0 0 0 0 0 0 0 0 0 0 0 127 0"/><feOffset dy="-3.1960225105285645" dx="-3.1960225105285645"/><feGaussianBlur stdDeviation="0"/><feComposite in2="hardAlpha" operator="arithmetic" k2="-1" k3="1"/><feColorMatrix type="matrix" values="0 0 0 0 0.8627451062202454 0 0 0 0 0.9176470637321472 0 0 0 0 1 0 0 0 1 0"/><feBlend mode="normal" in2="shape" result="effect1_innerShadow"/></filter><filter id="master_svg1_123_06197" filterUnits="objectBoundingBox" color-interpolation-filters="sRGB" x="0" y="0" width="42.26103210449219" height="37.926116943359375"><feFlood flood-opacity="0" result="BackgroundImageFix"/><feBlend mode="normal" in="SourceGraphic" in2="BackgroundImageFix" result="shape"/><feColorMatrix in="SourceAlpha" type="matrix" result="hardAlpha" values="0 0 0 0 0 0 0 0 0 0 0 0 0 0 0 0 0 0 127 0"/><feOffset dy="0.6392045617103577" dx="2.7698862552642822"/><feGaussianBlur stdDeviation="0"/><feComposite in2="hardAlpha" operator="arithmetic" k2="-1" k3="1"/><feColorMatrix type="matrix" values="0 0 0 0 0.501960813999176 0 0 0 0 0.7019608020782471 0 0 0 0 1 0 0 0 1 0"/><feBlend mode="normal" in2="shape" result="effect1_innerShadow"/></filter></defs><g><g><ellipse cx="75" cy="75" rx="75" ry="75" fill="#F1F6FF" fill-opacity="1"/></g><g><g><path d="M108.61599061555863,109.73013739355468L25.567839615558626,109.73013739355468L25.567839615558626,109.72900039355468Q25.525980615558623,109.72900039355468,25.484925615558623,109.72083439355468Q25.443871615558624,109.7126683935547,25.405198615558625,109.6966493935547Q25.366526615558623,109.6806303935547,25.331721615558624,109.65737539355469Q25.296917615558623,109.63411939355468,25.267318615558626,109.60452139355469Q25.237720415558623,109.57492239355469,25.214464815558625,109.54011839355469Q25.191209315558623,109.50531339355469,25.175190615558623,109.46664139355468Q25.159171915558623,109.42796839355469,25.151005685558623,109.38691439355469Q25.142839431758624,109.34585939355469,25.142839431758624,109.30400039355469Q25.142839431758624,109.26214239355468,25.151005685558623,109.22108739355468Q25.159171915558623,109.18003239355468,25.175190615558623,109.14136039355469Q25.191209315558623,109.10268739355469,25.214464815558625,109.06788339355468Q25.237720415558623,109.03307939355469,25.267318615558626,109.00348039355468Q25.296917615558623,108.97388179355468,25.331721615558624,108.95062629355469Q25.366526615558623,108.92737069355469,25.405198615558625,108.91135199355469Q25.443871615558624,108.8953333935547,25.484925615558623,108.8871670935547Q25.525980615558623,108.87900084355469,25.567839615558626,108.87900084355469L25.567839615558626,108.87786445025469L108.61599061555863,108.87786445025469L108.61599061555863,108.87900084355469Q108.65779061555862,108.87900084355469,108.69889061555862,108.8871670935547Q108.73989061555862,108.8953333935547,108.77859061555863,108.91135199355469Q108.81729061555862,108.92737069355469,108.85209061555862,108.95062629355469Q108.88689061555863,108.97388179355468,108.91649061555863,109.00348039355468Q108.94609061555862,109.03307939355469,108.96939061555862,109.06788339355468Q108.99259061555863,109.10268739355469,109.00859061555862,109.14136039355469Q109.02459061555862,109.18003239355468,109.03279061555862,109.22108739355468Q109.04099061555863,109.26214239355468,109.04099061555863,109.30400039355469Q109.04099061555863,109.34585939355469,109.03279061555862,109.38691439355469Q109.02459061555862,109.42796839355469,109.00859061555862,109.46664139355468Q108.99259061555863,109.50531339355469,108.96929061555862,109.54011839355469Q108.94609061555862,109.57492239355469,108.91649061555863,109.60452139355469Q108.88689061555863,109.63411939355468,108.85209061555862,109.65737539355469Q108.81729061555862,109.6806303935547,108.77859061555863,109.6966493935547Q108.73989061555862,109.7126683935547,108.69889061555862,109.72083439355468Q108.65779061555862,109.72900039355468,108.61599061555863,109.72900039355468L108.61599061555863,109.73013739355468ZM124.00529061555862,109.73013739355468L111.89239061555863,109.73013739355468L111.89239061555863,109.72900039355468Q111.85059061555863,109.72900039355468,111.80949061555863,109.72083439355468Q111.76849061555862,109.7126683935547,111.72979061555863,109.6966493935547Q111.69109061555862,109.6806303935547,111.65629061555862,109.65737539355469Q111.62149061555863,109.63411939355468,111.59189061555863,109.60452139355469Q111.56229061555862,109.57492239355469,111.53899061555862,109.54011839355469Q111.51579061555863,109.50531339355469,111.49979061555862,109.46664139355468Q111.48379061555862,109.42796839355469,111.47559061555863,109.38691439355469Q111.46739061555863,109.34585939355469,111.46739061555863,109.30400039355469Q111.46739061555863,109.26214239355468,111.47559061555863,109.22108739355468Q111.48379061555862,109.18003239355468,111.49979061555862,109.14136039355469Q111.51579061555863,109.10268739355469,111.53899061555862,109.06788339355468Q111.56229061555862,109.03307939355469,111.59189061555863,109.00348039355468Q111.62149061555863,108.97388179355468,111.65629061555862,108.95062629355469Q111.69109061555862,108.92737069355469,111.72979061555863,108.91135199355469Q111.76849061555862,108.8953333935547,111.80949061555863,108.8871670935547Q111.85059061555863,108.87900084355469,111.89239061555863,108.87900084355469L111.89239061555863,108.87786445025469L124.00529061555862,108.87786445025469L124.00529061555862,108.87900084355469Q124.04719061555862,108.87900084355469,124.08819061555863,108.8871670935547Q124.12929061555863,108.8953333935547,124.16799061555862,108.91135199355469Q124.20659061555862,108.92737069355469,124.24139061555863,108.95062629355469Q124.27619061555862,108.97388179355468,124.30579061555862,109.00348039355468Q124.33539061555862,109.03307939355469,124.35869061555863,109.06788339355468Q124.38189061555862,109.10268739355469,124.39799061555863,109.14136039355469Q124.41399061555862,109.18003239355468,124.42219061555862,109.22108739355468Q124.43029061555862,109.26214239355468,124.43029061555862,109.30400039355469Q124.43029061555862,109.34585939355469,124.42219061555862,109.38691439355469Q124.41399061555862,109.42796839355469,124.39799061555863,109.46664139355468Q124.38189061555862,109.50531339355469,124.35869061555863,109.54011839355469Q124.33539061555862,109.57492239355469,124.30579061555862,109.60452139355469Q124.27619061555862,109.63411939355468,124.24139061555863,109.65737539355469Q124.20659061555862,109.6806303935547,124.16799061555862,109.6966493935547Q124.12929061555863,109.7126683935547,124.08819061555863,109.72083439355468Q124.04719061555862,109.72900039355468,124.00529061555862,109.72900039355468L124.00529061555862,109.73013739355468Z" fill-rule="evenodd" fill="#0256FF" fill-opacity="1"/></g><g transform="matrix(-1,0,0,1,197.72485733032227,0)"><path d="M99.28747766516113,112.5000484443512L107.22699866516113,112.5000484443512L107.22699866516113,112.4989114443512Q107.26885866516113,112.4989114443512,107.30990866516113,112.49074544435119Q107.35096866516113,112.4825794443512,107.38963866516113,112.4665604443512Q107.42830866516113,112.4505414443512,107.46311866516113,112.4272864443512Q107.49791866516114,112.40403044435119,107.52751866516112,112.3744324443512Q107.55711866516113,112.3448334443512,107.58036866516113,112.3100294443512Q107.60362866516112,112.2752244443512,107.61964866516114,112.23655244435119Q107.63566866516113,112.1978794443512,107.64382866516114,112.1568254443512Q107.65199866516113,112.1157704443512,107.65199866516113,112.0739114443512Q107.65199866516113,112.03205344435119,107.64382866516114,111.99099844435119Q107.63566866516113,111.94994344435119,107.61964866516114,111.9112714443512Q107.60362866516112,111.8725984443512,107.58036866516113,111.83779444435119Q107.55711866516113,111.8029904443512,107.52751866516112,111.77339144435119Q107.49791866516114,111.74379284435119,107.46311866516113,111.7205373443512Q107.42830866516113,111.6972817443512,107.38963866516113,111.6812630443512Q107.35096866516113,111.6652444443512,107.30990866516113,111.6570781443512Q107.26885866516113,111.6489118943512,107.22699866516113,111.6489118943512L107.22699866516113,111.6477755010512L99.28747766516113,111.6477755010512L99.28747766516113,111.6489118943512Q99.24561866516113,111.6489118943512,99.20456366516113,111.6570781443512Q99.16350966516113,111.6652444443512,99.12483666516113,111.6812630443512Q99.08616466516114,111.6972817443512,99.05135966516113,111.7205373443512Q99.01655566516114,111.74379284435119,98.98695666516113,111.77339144435119Q98.95735846516114,111.8029904443512,98.93410286516114,111.83779444435119Q98.91084736516113,111.8725984443512,98.89482866516113,111.9112714443512Q98.87880996516114,111.94994344435119,98.87064373516114,111.99099844435119Q98.86247748136114,112.03205344435119,98.86247748136114,112.0739114443512Q98.86247748136114,112.1157704443512,98.87064373516114,112.1568254443512Q98.87880996516114,112.1978794443512,98.89482866516113,112.23655244435119Q98.91084736516113,112.2752244443512,98.93410286516114,112.3100294443512Q98.95735846516114,112.3448334443512,98.98695666516113,112.3744324443512Q99.01655566516114,112.40403044435119,99.05135966516113,112.4272864443512Q99.08616466516114,112.4505414443512,99.12483666516113,112.4665604443512Q99.16350966516113,112.4825794443512,99.20456366516113,112.49074544435119Q99.24561866516113,112.4989114443512,99.28747766516113,112.4989114443512L99.28747766516113,112.5000484443512ZM108.87742866516113,112.5000484443512L109.94882866516113,112.5000484443512L109.94882866516113,112.4989114443512Q109.99062866516113,112.4989114443512,110.03172866516113,112.49074544435119Q110.07272866516114,112.4825794443512,110.11142866516113,112.4665604443512Q110.15012866516113,112.4505414443512,110.18492866516114,112.4272864443512Q110.21972866516113,112.40403044435119,110.24932866516113,112.3744324443512Q110.27892866516113,112.3448334443512,110.30212866516113,112.3100294443512Q110.32542866516113,112.2752244443512,110.34142866516113,112.23655244435119Q110.35742866516114,112.1978794443512,110.36562866516113,112.1568254443512Q110.37382866516113,112.1157704443512,110.37382866516113,112.0739114443512Q110.37382866516113,112.03205344435119,110.36562866516113,111.99099844435119Q110.35742866516114,111.94994344435119,110.34142866516113,111.9112714443512Q110.32542866516113,111.8725984443512,110.30212866516113,111.83779444435119Q110.27892866516113,111.8029904443512,110.24932866516113,111.77339144435119Q110.21972866516113,111.74379284435119,110.18492866516114,111.7205373443512Q110.15012866516113,111.6972817443512,110.11142866516113,111.6812630443512Q110.07272866516114,111.6652444443512,110.03172866516113,111.6570781443512Q109.99062866516113,111.6489118943512,109.94882866516113,111.6489118943512L109.94882866516113,111.6477755010512L108.87742866516113,111.6477755010512L108.87742866516113,111.6489118943512Q108.83558866516114,111.6489118943512,108.79452866516114,111.6570781443512Q108.75347866516114,111.6652444443512,108.71479866516114,111.6812630443512Q108.67612866516113,111.6972817443512,108.64132866516113,111.7205373443512Q108.60651866516113,111.74379284435119,108.57691866516113,111.77339144435119Q108.54731866516113,111.8029904443512,108.52406866516114,111.83779444435119Q108.50080866516113,111.8725984443512,108.48478866516113,111.9112714443512Q108.46877866516114,111.94994344435119,108.46060866516113,111.99099844435119Q108.45243866516114,112.03205344435119,108.45243866516114,112.0739114443512Q108.45243866516114,112.1157704443512,108.46060866516113,112.1568254443512Q108.46877866516114,112.1978794443512,108.48478866516113,112.23655244435119Q108.50080866516113,112.2752244443512,108.52406866516114,112.3100294443512Q108.54731866516113,112.3448334443512,108.57691866516113,112.3744324443512Q108.60651866516113,112.40403044435119,108.64132866516113,112.4272864443512Q108.67612866516113,112.4505414443512,108.71479866516114,112.4665604443512Q108.75347866516114,112.4825794443512,108.79452866516114,112.49074544435119Q108.83558866516114,112.4989114443512,108.87742866516113,112.4989114443512L108.87742866516113,112.5000484443512ZM111.20432866516113,112.5000484443512L137.70462866516112,112.5000484443512L137.70462866516112,112.4989114443512Q137.74652866516112,112.4989114443512,137.78762866516112,112.49074544435119Q137.82862866516115,112.4825794443512,137.86732866516112,112.4665604443512Q137.90602866516113,112.4505414443512,137.94082866516112,112.4272864443512Q137.97562866516114,112.40403044435119,138.00522866516113,112.3744324443512Q138.03482866516114,112.3448334443512,138.05802866516115,112.3100294443512Q138.08132866516112,112.2752244443512,138.09732866516114,112.23655244435119Q138.11332866516113,112.1978794443512,138.12152866516112,112.1568254443512Q138.12962866516114,112.1157704443512,138.12972866516114,112.0739114443512Q138.12962866516114,112.03205344435119,138.12152866516112,111.99099844435119Q138.11332866516113,111.94994344435119,138.09732866516114,111.9112714443512Q138.08132866516112,111.8725984443512,138.05802866516115,111.83779444435119Q138.03482866516114,111.8029904443512,138.00522866516113,111.77339144435119Q137.97562866516114,111.74379284435119,137.94082866516112,111.7205373443512Q137.90602866516113,111.6972817443512,137.86732866516112,111.6812630443512Q137.82862866516115,111.6652444443512,137.78762866516112,111.6570781443512Q137.74652866516112,111.6489118943512,137.70462866516112,111.6489118943512L137.70462866516112,111.6477755010512L111.20432866516113,111.6477755010512L111.20432866516113,111.6489118943512Q111.16252866516113,111.6489118943512,111.12142866516113,111.6570781443512Q111.08032866516113,111.6652444443512,111.04172866516113,111.6812630443512Q111.00302866516114,111.6972817443512,110.96822866516113,111.7205373443512Q110.93342866516113,111.74379284435119,110.90382866516113,111.77339144435119Q110.87422866516113,111.8029904443512,110.85092866516113,111.83779444435119Q110.82772866516113,111.8725984443512,110.81172866516113,111.9112714443512Q110.79572866516114,111.94994344435119,110.78752866516113,111.99099844435119Q110.77932866516113,112.03205344435119,110.77932866516113,112.0739114443512Q110.77932866516113,112.1157704443512,110.78752866516113,112.1568254443512Q110.79572866516114,112.1978794443512,110.81172866516113,112.23655244435119Q110.82772866516113,112.2752244443512,110.85092866516113,112.3100294443512Q110.87422866516113,112.3448334443512,110.90382866516113,112.3744324443512Q110.93342866516113,112.40403044435119,110.96822866516113,112.4272864443512Q111.00302866516114,112.4505414443512,111.04172866516113,112.4665604443512Q111.08032866516113,112.4825794443512,111.12142866516113,112.49074544435119Q111.16252866516113,112.4989114443512,111.20432866516113,112.4989114443512L111.20432866516113,112.5000484443512ZM140.40112866516114,112.61833444435119L146.37552866516114,112.61833444435119L146.37552866516114,112.6171984443512Q146.41732866516114,112.6171984443512,146.45842866516114,112.6090314443512Q146.49942866516113,112.6008654443512,146.53812866516114,112.5848464443512Q146.57682866516114,112.5688284443512,146.61162866516113,112.5455724443512Q146.64642866516112,112.5223174443512,146.67602866516114,112.4927184443512Q146.70562866516113,112.4631194443512,146.72882866516113,112.4283154443512Q146.75212866516114,112.3935104443512,146.76812866516113,112.3548384443512Q146.78412866516112,112.3161654443512,146.79232866516114,112.2751114443512Q146.80052866516112,112.2340564443512,146.80052866516112,112.19219844435119Q146.80052866516112,112.15033944435119,146.79232866516114,112.10928444435119Q146.78412866516112,112.0682304443512,146.76812866516113,112.0295574443512Q146.75212866516114,111.99088544435119,146.72882866516113,111.9560804443512Q146.70562866516113,111.9212764443512,146.67602866516114,111.8916774443512Q146.64642866516112,111.8620794443512,146.61162866516113,111.83882344435119Q146.57682866516114,111.8155674443512,146.53812866516114,111.7995494443512Q146.49942866516113,111.7835304443512,146.45842866516114,111.7753644443512Q146.41732866516114,111.7671984443512,146.37552866516114,111.7671984443512L146.37552866516114,111.7660614443512L140.40112866516114,111.7660614443512L140.40112866516114,111.7671984443512Q140.35922866516114,111.7671984443512,140.31822866516114,111.7753644443512Q140.27712866516114,111.7835304443512,140.23852866516114,111.7995494443512Q140.19982866516114,111.8155674443512,140.16502866516112,111.83882344435119Q140.13022866516113,111.8620794443512,140.10062866516114,111.8916774443512Q140.07102866516112,111.9212764443512,140.04772866516112,111.9560804443512Q140.02452866516114,111.99088544435119,140.00842866516115,112.0295574443512Q139.99242866516113,112.0682304443512,139.98432866516112,112.10928444435119Q139.97612866516113,112.15033944435119,139.97612866516113,112.19219844435119Q139.97612866516113,112.2340564443512,139.98432866516112,112.2751114443512Q139.99242866516113,112.3161654443512,140.00842866516115,112.3548384443512Q140.02452866516114,112.3935104443512,140.04772866516112,112.4283154443512Q140.07102866516112,112.4631194443512,140.10062866516114,112.4927184443512Q140.13022866516113,112.5223174443512,140.16502866516112,112.5455724443512Q140.19982866516114,112.5688284443512,140.23852866516114,112.5848464443512Q140.27712866516114,112.6008654443512,140.31822866516114,112.6090314443512Q140.35922866516114,112.6171984443512,140.40112866516114,112.6171984443512L140.40112866516114,112.61833444435119Z" fill-rule="evenodd" fill="#0256FF" fill-opacity="1"/></g></g><g><g filter="url(#master_svg0_123_06192)"><path d="M55.6841139831543,53.90625047683716L94.1028139831543,53.90625047683716C94.6551139831543,53.90625047683716,95.1449139831543,54.26092247683716,95.31731398315429,54.78562447683716L105.6179139831543,86.13745047683716C105.6602139831543,86.26625047683716,105.6818139831543,86.40095047683715,105.6818139831543,86.53655047683716L105.6818139831543,108.02555047683717C105.6818139831543,108.73165047683716,105.1094139831543,109.30395047683716,104.4034139831543,109.30395047683716L45.3835239831543,109.30395047683716C44.6774769831543,109.30395047683716,44.1051139831543,108.73165047683716,44.1051139831543,108.02555047683717L44.1051139831543,86.53655047683716C44.1051139831543,86.40095047683715,44.1266738831543,86.26625047683716,44.1689857831543,86.13745047683716L54.4696139831543,54.78562347683716C54.6420139831543,54.26092247683716,55.131813983154295,53.90625047683716,55.6841139831543,53.90625047683716" fill-rule="evenodd" fill="#FFFFFF" fill-opacity="1"/><path d="M53.963543983154295,54.61935947683716L43.662928983154295,85.97125047683716Q43.572443983154294,86.24665047683716,43.572443983154294,86.53655047683716L43.572443983154294,108.02555047683717Q43.572443983154294,108.77575047683716,44.1028968731543,109.30615047683716Q44.633344983154295,109.83665047683715,45.3835239831543,109.83665047683715L104.4034139831543,109.83665047683715Q105.15361398315429,109.83665047683715,105.6840139831543,109.30615047683716Q106.21451398315429,108.77575047683716,106.21451398315429,108.02555047683717L106.21451398315429,86.53655047683716Q106.21451398315429,86.24665047683716,106.1240139831543,85.97125047683716L95.8234139831543,54.61936047683716Q95.6402139831543,54.06186347683716,95.16491398315429,53.717721476837156Q94.68961398315429,53.373580476837155,94.1028139831543,53.373580476837155L55.6841139831543,53.373580476837155Q55.097313983154294,53.373580476837155,54.6220139831543,53.717721476837156Q54.1467139831543,54.06186347683716,53.963543983154295,54.61935947683716ZM44.6377839831543,86.53655047683716Q44.6377839831543,86.41715047683715,44.6750429831543,86.30375047683717L54.9756139831543,54.95189047683716Q55.144213983154295,54.43892047683716,55.6841139831543,54.43892047683716L94.1028139831543,54.43892047683716Q94.6427139831543,54.43892047683716,94.81131398315429,54.95189047683716L105.1119139831543,86.30375047683717Q105.1491139831543,86.41715047683715,105.1491139831543,86.53655047683716L105.1491139831543,108.02555047683717Q105.1491139831543,108.33445047683716,104.9307139831543,108.55285047683716Q104.7123139831543,108.77135047683716,104.4034139831543,108.77135047683716L45.3835239831543,108.77135047683716Q45.07462798315429,108.77135047683716,44.8562059831543,108.55285047683716Q44.6377839831543,108.33445047683716,44.6377839831543,108.02555047683717L44.6377839831543,86.53655047683716Z" fill-rule="evenodd" fill="#0256FF" fill-opacity="1"/></g><g filter="url(#master_svg1_123_06197)"><path d="M89.16118622131347,58.56868197473145L96.07458622131347,82.32574597473145C96.23328622131348,82.87114597473145,95.82418622131348,83.41614597473145,95.25628622131347,83.41614597473145L87.15208622131348,83.41614597473145Q87.15248622131347,83.46944597473144,87.15248622131347,83.52274597473145Q87.15248622131347,83.82604597473144,87.13768622131349,84.12904597473144Q87.12278622131348,84.43204597473144,87.09298622131348,84.73404597473144Q87.06328622131348,85.03594597473145,87.01878622131348,85.33604597473145Q86.97428622131348,85.63604597473145,86.91508622131349,85.93364597473145Q86.85588622131348,86.23114597473145,86.78218622131348,86.52544597473144Q86.70848622131348,86.81974597473145,86.62038622131348,87.11004597473145Q86.53228622131348,87.40034597473144,86.43008622131347,87.68594597473145Q86.32788622131348,87.97164597473144,86.21178622131347,88.25184597473145Q86.09568622131349,88.53214597473145,85.96598622131347,88.80644597473145Q85.83628622131347,89.08064597473145,85.69328622131349,89.34824597473144Q85.55028622131348,89.61574597473145,85.39428622131348,89.87594597473145Q85.23838622131348,90.13614597473145,85.06978622131348,90.38844597473144Q84.90128622131348,90.64064597473146,84.72058622131348,90.88434597473145Q84.53988622131348,91.12804597473144,84.34738622131349,91.36254597473145Q84.15488622131348,91.59704597473144,83.95118622131348,91.82184597473145Q83.74748622131348,92.04654597473144,83.53298622131348,92.26114597473145Q83.31848622131348,92.47564597473144,83.09368622131348,92.67934597473145Q82.86888622131347,92.88304597473144,82.63438622131348,93.07554597473145Q82.39988622131348,93.26794597473145,82.15618622131348,93.44874597473145Q81.91248622131347,93.62944597473145,81.66028622131347,93.79794597473145Q81.40798622131348,93.96654597473145,81.14778622131348,94.12244597473145Q80.88758622131348,94.27844597473145,80.62008622131347,94.42144597473145Q80.35248622131348,94.56444597473146,80.07828622131348,94.69414597473144Q79.80398622131348,94.82384597473146,79.52378622131347,94.93994597473144Q79.24348622131347,95.05604597473145,78.95778622131348,95.15824597473144Q78.67218622131348,95.26044597473145,78.38188622131348,95.34854597473145Q78.09158622131348,95.43654597473144,77.79728622131347,95.51034597473145Q77.50298622131348,95.58404597473145,77.20548622131348,95.64324597473144Q76.90798622131348,95.70234597473144,76.60788622131348,95.74694597473145Q76.30778622131348,95.79144597473145,76.00588622131347,95.82114597473145Q75.70398622131347,95.85084597473144,75.40098622131347,95.86574597473145Q75.09798622131348,95.88064597473144,74.79458622131348,95.88064597473144Q74.49118622131348,95.88064597473144,74.18818622131347,95.86574597473145Q73.88518622131348,95.85084597473144,73.58328622131347,95.82114597473145Q73.28138622131348,95.79144597473145,72.98128622131347,95.74694597473145Q72.68118622131348,95.70234597473144,72.38368622131347,95.64324597473144Q72.08608622131348,95.58404597473145,71.79178622131347,95.51034597473145Q71.49758622131347,95.43654597473144,71.20728622131348,95.34854597473145Q70.91688622131348,95.26044597473145,70.63128622131347,95.15824597473144Q70.34568622131347,95.05604597473145,70.06538622131347,94.93994597473144Q69.78508622131348,94.82384597473146,69.51088622131348,94.69414597473144Q69.23658622131347,94.56444597473146,68.96908622131347,94.42144597473145Q68.70148622131347,94.27844597473145,68.44128622131348,94.12244597473145Q68.18108622131348,93.96654597473145,67.92888622131348,93.79794597473145Q67.67658622131347,93.62944597473145,67.43298622131348,93.44874597473145Q67.18928622131348,93.26794597473145,66.95478622131347,93.07554597473145Q66.72028622131347,92.88304597473144,66.49548622131348,92.67934597473145Q66.27068622131348,92.47564597473144,66.05618622131348,92.26114597473145Q65.84168622131348,92.04654597473144,65.63788622131348,91.82184597473145Q65.43418622131348,91.59704597473144,65.24168622131347,91.36254597473145Q65.04928622131348,91.12804597473144,64.86858622131348,90.88434597473145Q64.68788622131348,90.64064597473146,64.51928622131348,90.38844597473144Q64.35078622131348,90.13614597473145,64.19478622131348,89.87594597473145Q64.03878622131347,89.61574597473145,63.89578622131348,89.34824597473144Q63.75281622131348,89.08064597473145,63.62310622131348,88.80644597473145Q63.493396221313475,88.53214597473145,63.37729622131348,88.25184597473145Q63.26120622131348,87.97164597473144,63.159006221313476,87.68594597473145Q63.05680622131348,87.40034597473144,62.96873622131348,87.11004597473145Q62.88067622131348,86.81974597473145,62.80695622131348,86.52544597473144Q62.73324622131348,86.23114597473145,62.674066221313474,85.93364597473145Q62.61487622131348,85.63604597473145,62.57036622131348,85.33594597473144Q62.525856221313475,85.03594597473145,62.49611622131348,84.73404597473144Q62.466376221313475,84.43204597473144,62.45149622131348,84.12904597473144Q62.436606221313475,83.82604597473144,62.436606221313475,83.52274597473145Q62.436606221313475,83.46944597473144,62.43706622131347,83.41614597473145L54.70085322131348,83.41614597473145C54.13288822131348,83.41614597473145,53.723828221313475,82.87114597473145,53.882526221313476,82.32574597473145L60.795956221313475,58.56868197473145C60.90185622131348,58.20479597473145,61.23530622131348,57.954545974731445,61.61428622131348,57.954545974731445L88.34288622131348,57.954545974731445C88.72178622131348,57.954545974731445,89.05528622131348,58.20479597473145,89.16118622131347,58.56868197473145Z" fill-rule="evenodd" fill="#ABCCFF" fill-opacity="1"/><path d="M89.64128622131348,58.428974974731446L96.55468622131347,82.18604597473144Q96.74348622131347,82.83504597473144,96.33788622131348,83.37564597473144Q95.93218622131349,83.91624597473145,95.25628622131347,83.91614597473145L87.15208622131348,83.91614597473145L87.15208622131348,83.41614597473145L87.65208622131348,83.41304597473145L87.65238622131348,83.46784597473145L87.65248622131347,83.52164597473144Q87.65248622131347,85.97524597473145,86.74978622131349,88.25564597473145Q85.76948622131349,90.73164597473144,83.88648622131348,92.61464597473145Q82.00348622131348,94.49764597473145,79.52748622131348,95.47784597473145Q77.24718622131348,96.38064597473144,74.79458622131348,96.38064597473144Q72.34198622131348,96.38064597473144,70.06158622131348,95.47784597473145Q67.58558622131348,94.49764597473145,65.70258622131348,92.61464597473145Q63.819616221313474,90.73164597473144,62.839386221313475,88.25564597473145Q61.936606221313475,85.97524597473145,61.936606221313475,83.52274597473145L61.936716221313475,83.47024597473144L61.937076221313475,83.41304597473145L62.43706622131347,83.41614597473145L62.43706622131347,83.91614597473145L54.70085322131348,83.91614597473145Q54.02497622131348,83.91614597473145,53.619283221313474,83.37564597473144Q53.21359122131348,82.83504597473144,53.402441221313474,82.18604597473144L60.315876221313474,58.42897397473145Q60.441886221313474,57.995950474731444,60.80259622131348,57.725247974731445Q61.16329622131347,57.454545974731445,61.61428622131348,57.454545974731445L88.34288622131348,57.454545974731445Q88.79378622131347,57.454545974731445,89.15448622131348,57.725247974731445Q89.51528622131347,57.99595277473144,89.64128622131348,58.428974974731446L89.64128622131348,58.428974974731446ZM88.68108622131348,58.708387974731444Q88.60718622131347,58.454545974731445,88.34288622131348,58.454545974731445L61.61428622131348,58.454545974731445Q61.34991622131348,58.454545974731445,61.27604622131348,58.70838897473145L54.36261122131348,82.46544597473144Q54.31341522131348,82.63454597473145,54.41910022131348,82.77534597473144Q54.524784221313475,82.91624597473145,54.70085322131348,82.91614597473145L62.43706622131347,82.91614597473145Q62.438666221313476,82.91614597473145,62.44026622131348,82.91624597473145Q62.489506221313476,82.91654597473145,62.537746221313476,82.92644597473145Q62.58597622131347,82.93634597473144,62.631356221313474,82.95544597473145Q62.67672622131347,82.97464597473144,62.71750622131348,83.00224597473144Q62.75827622131348,83.02984597473144,62.79287622131348,83.06494597473144Q62.82746622131348,83.09994597473144,62.854566221313476,83.14104597473144Q62.88166622131348,83.18214597473144,62.90021622131348,83.22784597473145Q62.91877622131348,83.27344597473144,62.928076221313475,83.32174597473144Q62.93737622131348,83.37014597473144,62.937056221313476,83.41934597473144L62.936716221313475,83.47234597473144L62.936606221313475,83.52274597473145Q62.936606221313475,85.78454597473144,63.76917622131347,87.88754597473144Q64.67318622131347,90.17094597473144,66.40968622131348,91.90754597473145Q68.14628622131347,93.64414597473144,70.42968622131347,94.54814597473145Q72.53268622131347,95.38064597473144,74.79458622131348,95.38064597473144Q77.05638622131347,95.38064597473144,79.15938622131347,94.54814597473145Q81.44288622131347,93.64414597473144,83.17938622131348,91.90754597473145Q84.91598622131347,90.17094597473144,85.81998622131348,87.88754597473144Q86.65248622131347,85.78454597473144,86.65248622131347,83.52374597473144L86.65238622131348,83.47424597473145L86.65208622131348,83.41934597473144Q86.65208622131348,83.41774597473145,86.65208622131348,83.41614597473145Q86.65208622131348,83.36694597473145,86.66168622131347,83.31864597473145Q86.67128622131348,83.27034597473144,86.69008622131348,83.22484597473144Q86.70898622131347,83.17934597473145,86.73628622131348,83.13844597473144Q86.76368622131348,83.09744597473144,86.79848622131348,83.06264597473145Q86.83328622131347,83.02784597473145,86.87428622131347,83.00044597473145Q86.91518622131348,82.97314597473144,86.96068622131347,82.95424597473145Q87.00618622131347,82.93544597473144,87.05448622131348,82.92584597473144Q87.10278622131348,82.91614597473145,87.15208622131348,82.91614597473145L95.25628622131347,82.91614597473145Q95.43238622131348,82.91614597473145,95.53798622131347,82.77534597473144Q95.64368622131347,82.63454597473145,95.59448622131347,82.46544597473144L88.68108622131348,58.70838897473145L88.68108622131348,58.708387974731444Z" fill="#0256FF" fill-opacity="1"/></g><g transform="matrix(0.8660253882408142,0.5,-0.5,0.8660253882408142,30.79023810603485,-22.013001024658706)"><path d="M60.03255908691406,54.505563983154296L56.471939086914055,56.693863983154294L58.660249086914064,53.13326398315429C59.24903908691406,52.1752339831543,59.24903908691406,50.967503983154295,58.660249086914064,50.0094839831543L56.471939086914055,46.448863983154304L60.03255908691406,48.6371739831543C60.99057908691406,49.225963983154294,62.198309086914065,49.225963983154294,63.15633908691406,48.6371739831543L66.71693908691407,46.448863983154304L64.52863908691407,50.0094839831543C63.939849086914066,50.967503983154295,63.939849086914066,52.1752339831543,64.52863908691407,53.1332539831543L66.71693908691407,56.693863983154294L63.15632908691406,54.505563983154296C62.198309086914065,53.9167739831543,60.99057908691406,53.9167739831543,60.03255908691406,54.505563983154296" fill-rule="evenodd" fill="#FFFFFF" fill-opacity="1"/><path d="M62.98898908691406,54.777853983154294L66.54963908691406,56.966163983154296Q66.58733908691406,56.9893639831543,66.63003908691407,57.001463983154295Q66.67263908691406,57.013463983154296,66.71693908691407,57.013463983154296Q66.76123908691406,57.013463983154296,66.80393908691406,57.001463983154295Q66.84653908691406,56.9893639831543,66.88433908691407,56.966163983154296Q66.91113908691406,56.949663983154295,66.93423908691406,56.928263983154295Q66.95723908691406,56.906863983154295,66.97573908691406,56.881363983154294Q66.99423908691406,56.85586398315429,67.00733908691406,56.827263983154296Q67.02053908691406,56.7986639831543,67.02783908691406,56.7680639831543Q67.03513908691406,56.7374639831543,67.03633908691407,56.7059639831543Q67.03753908691407,56.6745639831543,67.03253908691406,56.6434639831543Q67.02753908691406,56.612363983154296,67.01663908691407,56.5828639831543Q67.00573908691406,56.5533639831543,66.98923908691407,56.5265639831543L64.80092908691407,52.965913983154294Q64.40664908691406,52.324373983154295,64.40664908691406,51.571373983154295Q64.40664908691406,50.8183639831543,64.80092908691407,50.1768239831543L66.98923908691407,46.616208983154294Q67.01243908691406,46.5784569831543,67.02453908691406,46.53581658315429Q67.03653908691406,46.493175983154295,67.03653908691406,46.44886397510815Q67.03653908691406,46.4045519831543,67.02453908691406,46.3619113831543Q67.01243908691406,46.3192709831543,66.98923908691407,46.2815189831543Q66.95593908691406,46.227356983154294,66.90443908691407,46.1900569831543Q66.85303908691407,46.1527559831543,66.79113908691406,46.1379959831543Q66.72933908691407,46.1232349831543,66.66653908691406,46.1332619831543Q66.60373908691406,46.143287983154295,66.54963908691406,46.176574983154296L62.98898908691406,48.3648839831543Q62.34744908691406,48.759163983154295,61.59444908691406,48.759163983154295Q60.841439086914065,48.759163983154295,60.199899086914066,48.3648839831543L56.63928408691406,46.176574983154296Q56.60153208691406,46.1533729831543,56.55889168691406,46.141317983154295Q56.51625118691406,46.129261983154294,56.47193909496021,46.129261983154294Q56.427627086914065,46.129261983154294,56.384986486914066,46.1413169831543Q56.34234608691406,46.1533729831543,56.304594086914065,46.176574983154296Q56.27777608691406,46.1930569831543,56.254688086914065,46.2144549831543Q56.23160108691406,46.2358519831543,56.213132086914065,46.261341983154296Q56.19466308691406,46.2868329831543,56.18152108691406,46.315435983154295Q56.16838008691406,46.344039983154296,56.16107108691406,46.3746577831543Q56.153762086914064,46.4052755831543,56.15256708691406,46.4367309831543Q56.151372086914066,46.4681863831543,56.156337086914064,46.4992704831543Q56.161301086914065,46.5303545831543,56.172235086914064,46.5598729831543Q56.183168086914065,46.589390983154296,56.19965008691406,46.616208983154294L58.387959086914066,50.1768239831543Q58.78223908691406,50.8183639831543,58.78223908691406,51.571373983154295Q58.78223908691406,52.324373983154295,58.387959086914066,52.965913983154294L56.19965008691406,56.5265639831543Q56.176448086914064,56.5642639831543,56.16439308691406,56.606963983154294Q56.15233708691406,56.649563983154295,56.15233708691406,56.693863983154294Q56.15233708691406,56.738163983154294,56.16439208691406,56.7808639831543Q56.176448086914064,56.8234639831543,56.19965008691406,56.861263983154295Q56.23293708691406,56.91536398315429,56.28441708691406,56.952663983154295Q56.33589708691406,56.9899639831543,56.39773318691406,57.0047639831543Q56.45956858691406,57.019463983154296,56.522345686914065,57.0094639831543Q56.58512308691406,56.9994639831543,56.63928408691406,56.966163983154296L60.199899086914066,54.777853983154294Q60.841439086914065,54.3835739831543,61.59444908691406,54.3835739831543Q62.34744908691406,54.3835739831543,62.98898908691406,54.777853983154294ZM65.74360908691406,55.7205339831543L64.25634908691406,53.300603983154296Q63.76744908691406,52.5051039831543,63.76744908691406,51.571373983154295Q63.76744908691406,50.6376439831543,64.25634908691406,49.8421339831543L65.74360908691406,47.4222029831543L63.32367908691406,48.909463983154296Q62.528179086914065,49.3983739831543,61.59444908691406,49.3983739831543Q60.66070908691406,49.3983739831543,59.865209086914064,48.909463983154296L57.445278086914065,47.4222029831543L58.93253908691406,49.8421339831543Q59.421449086914066,50.637633983154295,59.421449086914066,51.571373983154295Q59.421449086914066,52.5051039831543,58.93253908691406,53.300603983154296L57.445278086914065,55.7205339831543L59.865209086914064,54.2332739831543Q60.660719086914064,53.7443739831543,61.59444908691406,53.7443739831543Q62.528179086914065,53.7443739831543,63.32367908691406,54.2332739831543L65.74360908691406,55.7205339831543Z" fill-rule="evenodd" fill="#0256FF" fill-opacity="1"/></g><g transform="matrix(-0.7880107760429382,0.6156615018844604,-0.6156615018844604,-0.7880107760429382,184.70504365275724,101.67525397820395)"><path d="M77.81101109985352,89.66703981079101L74.84772109985356,91.78805981079101L76.96874109985352,88.82476981079101C77.65875109985352,87.86073981079102,77.65875109985352,86.56446981079101,76.96874109985352,85.60043981079102L74.84772109985354,82.637149810791L77.81101109985352,84.75816981079102C78.77504109985351,85.44817981079102,80.07131109985352,85.44817981079102,81.03534109985351,84.75816981079102L83.99863109985351,82.637149810791L81.87761109985351,85.60043981079102C81.18759109985352,86.56446981079101,81.18759109985352,87.86073981079102,81.87761109985351,88.82476981079101L83.99863109985351,91.78805981079101L81.03534109985351,89.66703981079101C80.07131109985352,88.97701981079102,78.77504109985351,88.97701981079102,77.81101109985352,89.66703981079101" fill-rule="evenodd" fill="#FFFFFF" fill-opacity="1"/><path d="M80.84932109985351,89.92692981079102L83.81261109985351,92.04794981079101Q83.85330109985351,92.07706981079102,83.90094109985351,92.09236981079101Q83.94859109985352,92.10765981079102,83.99863109985351,92.10765981079102Q84.04867109985352,92.10765981079102,84.09631109985352,92.09236981079101Q84.14396109985351,92.07706981079102,84.18465109985351,92.04794981079101Q84.23634109985352,92.01094981079102,84.26994109985351,91.95697981079101Q84.30354109985352,91.90300981079102,84.31393109985352,91.84028981079102Q84.32432109985352,91.77756981079102,84.30992109985351,91.71564981079102Q84.29552109985352,91.65372981079102,84.25852109985351,91.60203981079101L82.13750109985352,88.63874981079101Q81.67970109985352,87.99915981079101,81.67970109985352,87.21259981079102Q81.67970109985352,86.42604981079101,82.13750109985352,85.78644981079101L84.25852109985351,82.82316881079102Q84.28764109985352,82.78247881079102,84.30294109985351,82.73483411079101Q84.31823109985352,82.68718921079102,84.31823109985352,82.63714980668186Q84.31823109985352,82.58711031079102,84.30294109985351,82.53946551079102Q84.28764109985352,82.49182081079101,84.25852109985351,82.45112981079102Q84.22152109985352,82.39943481079102,84.16755109985351,82.36583481079101Q84.11358109985352,82.33223481079102,84.05086109985352,82.32184481079102Q83.98814109985352,82.31145481079102,83.92622109985352,82.32585681079101Q83.86430109985352,82.34025881079101,83.81261109985351,82.37726081079101L80.84932109985351,84.49827981079102Q80.20973109985351,84.95607981079101,79.42317109985352,84.95607981079101Q78.63662109985351,84.95607981079101,77.99702109985351,84.49827981079102L75.03374009985352,82.37726081079101Q74.99305009985352,82.34813581079102,74.94540539985351,82.33284181079101Q74.89776049985352,82.31754781079101,74.84772109574436,82.31754781079101Q74.79768159985352,82.31754781079101,74.75003679985352,82.33284181079101Q74.70239209985351,82.34813581079102,74.66170109985352,82.37726081079101Q74.63610509985351,82.39558181079101,74.61457409985351,82.41854481079102Q74.59304309985352,82.44150781079101,74.57640609985351,82.46822981079102Q74.55976909985351,82.49495281079102,74.54866509985352,82.52440681079102Q74.53756109985352,82.55386131079102,74.53241609985352,82.58491611079101Q74.52727109985352,82.61597091079102,74.52828409985352,82.64743271079102Q74.52929709985352,82.67889451079101,74.53642809985351,82.70955411079102Q74.54355909985351,82.74021381079102,74.55653509985352,82.76889281079102Q74.56951109985351,82.79757281079101,74.58783209985351,82.82316981079101L76.70885109985352,85.78644981079101Q77.16665109985351,86.42604981079101,77.16665109985351,87.21259981079102Q77.16665109985351,87.99915981079101,76.70885109985352,88.63874981079101L74.58783209985351,91.60203981079101Q74.55870709985352,91.64272981079101,74.54341309985351,91.69036981079101Q74.52811909985351,91.73801981079102,74.52811909985351,91.78805981079101Q74.52811909985351,91.83809981079102,74.54341309985351,91.88573981079102Q74.55870709985352,91.93338981079101,74.58783209985351,91.97407981079101Q74.62483309985352,92.02576981079102,74.67880109985352,92.05936981079101Q74.73276909985351,92.09296981079102,74.79548689985351,92.10335981079102Q74.85820509985352,92.11374981079102,74.92012519985352,92.09934981079101Q74.98204509985352,92.08494981079102,75.03374109985351,92.04794981079101L77.99702109985351,89.92692981079102Q78.63662109985351,89.46912981079102,79.42317109985352,89.46912981079102Q80.20973109985351,89.46912981079102,80.84932109985351,89.92692981079102ZM82.61585109985351,90.40527981079101L81.61772109985351,89.01078981079101Q81.04050109985351,88.20433981079101,81.04050109985351,87.21259981079102Q81.04050109985351,86.22085981079101,81.61772109985351,85.41441981079102L82.61585109985351,84.01992981079101L81.22136109985351,85.01804981079101Q80.41491109985351,85.59527981079101,79.42317109985352,85.59527981079101Q78.43143109985351,85.59527981079101,77.62499109985352,85.01804981079101L76.23050109985351,84.01992981079101L77.22862109985351,85.41441981079102Q77.80585109985351,86.22085981079101,77.80585109985351,87.21259981079102Q77.80585109985351,88.20433981079101,77.22862109985351,89.01078981079101L76.23050109985351,90.40527981079101L77.62499109985352,89.40714981079101Q78.43144109985352,88.82992981079101,79.42317109985352,88.82992981079101Q80.41491109985351,88.82992981079101,81.22136109985351,89.40714981079101L82.61585109985351,90.40527981079101Z" fill-rule="evenodd" fill="#0256FF" fill-opacity="1"/></g><g transform="matrix(-0.3583679497241974,0.9335803985595703,-0.9335803985595703,-0.3583679497241974,184.255327062358,14.094586330892014)"><path d="M88.89254494628906,74.67258151550293L87.28419494628909,75.86200151550293L88.47361494628906,74.25365151550292C88.97469494628906,73.57609151550292,88.97469494628906,72.65080151550293,88.47361494628906,71.97323151550293L87.28419494628909,70.36488151550299L88.89254494628906,71.55430151550293C89.57011494628907,72.05538151550293,90.49540494628906,72.05538151550293,91.17296494628906,71.55430151550293L92.78131494628906,70.36488151550299L91.59189494628906,71.97323151550293C91.09082494628906,72.65080151550293,91.09082494628906,73.57609151550292,91.59189494628906,74.25365151550292L92.78131494628906,75.86200151550293L91.17296494628906,74.67258151550293C90.49540494628906,74.17151151550293,89.57011494628907,74.17151151550293,88.89254494628906,74.67258151550293" fill-rule="evenodd" fill="#FFFFFF" fill-opacity="1"/><path d="M90.98293494628906,74.92955151550294L92.59128494628906,76.11897151550293Q92.63254494628906,76.14948151550293,92.68127494628907,76.16554151550292Q92.73000494628906,76.18161151550294,92.78131494628906,76.18161151550294Q92.83263494628906,76.18161151550294,92.88136494628907,76.16554151550292Q92.93009494628906,76.14948151550293,92.97135494628907,76.11897151550293Q92.99666494628906,76.10026151550294,93.01783494628906,76.07696151550293Q93.03900494628907,76.05367151550293,93.05522494628906,76.02669151550293Q93.07144494628906,75.99971151550292,93.08209494628906,75.97009151550293Q93.09273494628906,75.94046151550293,93.09739494628906,75.90933151550293Q93.10205494628906,75.87820151550292,93.10055494628907,75.84676151550293Q93.09905494628906,75.81532151550293,93.09144494628906,75.78477151550292Q93.08384494628906,75.75423151550294,93.07042494628907,75.72575151550294Q93.05700494628906,75.69728151550294,93.03828494628907,75.67197151550293L91.84886494628907,74.06362151550293Q91.53569494628906,73.64014151550293,91.53569494628906,73.11344151550293Q91.53569494628906,72.58675151550293,91.84886494628907,72.16327151550293L93.03828494628907,70.55491651550292Q93.06879494628906,70.51365951550292,93.08485494628906,70.46492651550292Q93.10092494628907,70.41619351550293,93.10092494628907,70.36488150311303Q93.10092494628907,70.31356951550293,93.08485494628906,70.26483651550294Q93.06879494628906,70.21610251550293,93.03828494628907,70.17484651550294Q93.01957494628907,70.14953751550293,92.99627494628906,70.12836651550293Q92.97298494628906,70.10719551550292,92.94600494628907,70.09097551550293Q92.91902494628906,70.07475551550293,92.88940494628906,70.06410951550293Q92.85977494628906,70.05346451550292,92.82864494628906,70.04880351550293Q92.79751494628906,70.04414151550293,92.76607494628907,70.04564351550293Q92.73463494628906,70.04714451550294,92.70408494628906,70.05475151550293Q92.67354494628907,70.06235751550292,92.64506494628907,70.07577751550293Q92.61659494628907,70.08919651550293,92.59128494628906,70.10791351550293L90.98293494628906,71.29733551550294Q90.55945494628907,71.61051151550294,90.03275494628906,71.61051151550294Q89.50606494628906,71.61051151550294,89.08258494628906,71.29733551550294L87.47422994628906,70.10791351550293Q87.43297394628907,70.07740351550294,87.38423994628906,70.06134151550293Q87.33550694628906,70.04527951550293,87.28419494628906,70.04527951550293Q87.23288294628907,70.04527951550293,87.18414994628907,70.06134151550293Q87.13541594628906,70.07740351550294,87.09415994628907,70.10791351550293Q87.04304594628907,70.14571351550293,87.01028894628907,70.20019751550294Q86.97753094628906,70.25468051550293,86.96811694628906,70.31755261550293Q86.95870194628907,70.38042451550292,86.97406494628906,70.44211331550294Q86.98942694628906,70.50380251550293,87.02722694628906,70.55491651550292L88.21664894628907,72.16327151550293Q88.52982494628907,72.58675151550293,88.52982494628907,73.11344151550293Q88.52982494628907,73.64014151550293,88.21664894628907,74.06362151550293L87.02722694628906,75.67197151550293Q86.99671694628907,75.71323151550293,86.98065494628906,75.76196151550293Q86.96459294628906,75.81069151550292,86.96459294628906,75.86200151550293Q86.96459294628906,75.91332151550293,86.98065494628906,75.96205151550294Q86.99671694628907,76.01078151550293,87.02722694628906,76.05204151550294Q87.04594394628906,76.07735151550293,87.06923894628906,76.09852151550292Q87.09253294628907,76.11969151550294,87.11951094628907,76.13591151550293Q87.14648794628906,76.15213151550293,87.17611194628907,76.16278151550293Q87.20573494628906,76.17342151550292,87.23686594628906,76.17808151550292Q87.26799694628906,76.18274151550293,87.29943924628907,76.18124151550293Q87.33088144628907,76.17974151550293,87.36142664628906,76.17213151550293Q87.39197194628906,76.16453151550293,87.42044594628906,76.15111151550293Q87.44891994628907,76.13769151550292,87.47422994628906,76.11897151550293L89.08258494628906,74.92955151550294Q89.50606494628906,74.61638151550292,90.03275494628906,74.61638151550292Q90.55945494628907,74.61638151550292,90.98293494628906,74.92955151550294ZM91.26833494628906,74.34902151550293Q90.89648494628906,73.79251151550292,90.89648494628906,73.11344151550293Q90.89648494628906,72.43438151550293,91.26833494628906,71.87787151550293Q90.71182494628906,72.24971151550292,90.03275494628906,72.24971151550292Q89.35369494628907,72.24971151550292,88.79718494628906,71.87787151550293Q89.16902494628906,72.43438151550293,89.16902494628906,73.11344151550293Q89.16902494628906,73.79251151550292,88.79718494628906,74.34902151550293Q89.35369494628907,73.97717151550293,90.03275494628906,73.97717151550293Q90.71182494628906,73.97717151550293,91.26833494628906,74.34902151550293Z" fill-rule="evenodd" fill="#0256FF" fill-opacity="1"/></g></g><g><g transform="matrix(0.8660253882408142,0.5,-0.5,0.8660253882408142,42.231985781040805,-51.11756243479181)"><path d="" fill="#FFFFFF" fill-opacity="0"/><path d="M120.56625361236573,52.92757130932617L116.18306161236572,52.92757130932617L116.18306161236572,57.31076330932617L120.56625361236573,57.31076330932617L120.56625361236573,52.92757130932617ZM116.82226561236573,56.671563309326174L116.82226561236573,53.566775309326175L119.92705361236573,53.566775309326175L119.92705361236573,56.671563309326174L116.82226561236573,56.671563309326174Z" fill-rule="evenodd" fill="#0256FF" fill-opacity="1"/></g><g transform="matrix(0.258819043636322,0.9659258127212524,-0.9659258127212524,0.258819043636322,171.35629507444952,-78.82152396879872)"><path d="" fill="#FFFFFF" fill-opacity="0"/><path d="M140.4849041885376,71.92757130932617L136.7196521885376,71.92757130932617L136.7196521885376,75.69282330932617L140.4849041885376,75.69282330932617L140.4849041885376,71.92757130932617ZM137.3588561885376,75.05361330932617L137.3588561885376,72.56677530932618L139.8456941885376,72.56677530932618L139.8456941885376,75.05361330932617L137.3588561885376,75.05361330932617Z" fill-rule="evenodd" fill="#0256FF" fill-opacity="1"/></g><g transform="matrix(0.258819043636322,0.9659258127212524,-0.9659258127212524,0.258819043636322,176.69249446213195,-57.8248441799052)"><path d="" fill="#FFFFFF" fill-opacity="0"/><path d="M130.42176097808837,85.90304662060547L125.70604897808838,85.90304662060547L125.70604897808838,90.61875862060546L130.42176097808837,90.61875862060546L130.42176097808837,85.90304662060547ZM126.34525297808838,89.97954862060547L126.34525297808838,86.54225062060547L129.78255097808838,86.54225062060547L129.78255097808838,89.97954862060547L126.34525297808838,89.97954862060547Z" fill-rule="evenodd" fill="#0256FF" fill-opacity="1"/></g><g transform="matrix(0.258819043636322,0.9659258127212524,-0.9659258127212524,0.258819043636322,98.09499599575283,46.65445776208216)"><path d="" fill="#FFFFFF" fill-opacity="0"/><path d="M21.915032268447877,86.92757130932617L18.327260268447876,86.92757130932617L18.327260268447876,90.51534330932617L21.915032268447877,90.51534330932617L21.915032268447877,86.92757130932617ZM18.966464268447876,89.87614330932617L18.966464268447876,87.56677530932618L21.275832268447875,87.56677530932618L21.275832268447875,89.87614330932617L18.966464268447876,89.87614330932617Z" fill-rule="evenodd" fill="#0256FF" fill-opacity="1"/></g><g transform="matrix(0.258819043636322,0.9659258127212524,-0.9659258127212524,0.258819043636322,86.62593336802576,16.50856132146282)"><path d="" fill="#FFFFFF" fill-opacity="0"/><path d="M36.78573945709228,64.38123608898925L32.23617745709228,64.38123608898925L32.23617745709228,68.93079808898926L36.78573945709228,68.93079808898926L36.78573945709228,64.38123608898925ZM32.87538145709229,68.29158808898926L32.87538145709229,65.02044008898926L36.146529457092285,65.02044008898926L36.146529457092285,68.29158808898926L32.87538145709229,68.29158808898926Z" fill-rule="evenodd" fill="#0256FF" fill-opacity="1"/></g></g></g></svg>