<svg xmlns="http://www.w3.org/2000/svg" xmlns:xlink="http://www.w3.org/1999/xlink" fill="none" version="1.1" width="25" height="25" viewBox="0 0 25 25"><defs><clipPath id="master_svg0_82_02733"><rect x="2" y="2" width="20" height="20" rx="0"/></clipPath></defs><g><g clip-path="url(#master_svg0_82_02733)"><g><path d="M14.0933515625,15.146576640625C12.3333615625,16.666566640625,12.8666915625,13.999906640625,12.9466915625,13.626576640625C13.0266915625,13.253246640625001,14.173351562499999,10.959916640625,13.333351562499999,10.573250340625Q12.4933615625,10.186584640625,9.9066955625,12.093246640625Q9.4800300625,12.399916640625,9.5200298825,12.479916640625Q9.8000295625,12.973246640625,11.0400315625,12.093246640625Q11.4666915625,11.746576640625,11.4266915625,12.093246640625C11.0531015625,13.595246640625,10.7989715625,15.124466640625,10.6666915625,16.666566640625C10.8533615625,17.679906640625,12.4533615625,17.253236640625,13.7066915625,15.906576640625001Q14.9600215625,14.559906640625,14.0933515625,15.146576640625Z" fill="#2CC069" fill-opacity="1"/></g><g><path d="M13.07183515625,9.411668242187499C13.80735515625,9.452118242187499,14.43631515625,8.8884582421875,14.47640515625,8.1529182421875C14.51649515625,7.4173792421875,13.95253515625,6.7886941421875004,13.21697515625,6.7489602221875C12.48168515625,6.7088808421875,11.85312655625,7.2724572421875,11.81304713625,8.0077482421875C11.77296775625,8.7430282421875,12.33654415625,9.3715882421875,13.07183515625,9.411668242187499Z" fill="#2CC069" fill-opacity="1"/></g><g><path d="M19.3333,18.76C21.0487,16.9272,22.0021,14.5103,22,11.99998C22,6.47714,17.5228,2,11.99998,2C6.47714,2,2,6.47714,2,11.99998C2,17.5228,6.47714,22,11.99998,22L21.3333,22C21.6137,22.0028,21.8658,21.8299,21.9643,21.5674C22.0627,21.3049,21.9864,21.0088,21.7733,20.8266L19.3333,18.76ZM11.99998,20.6666C7.21352,20.6666,3.33333,16.7864,3.33333,11.99998C3.33333,7.21352,7.21352,3.33333,11.99998,3.33333C16.7864,3.33333,20.6666,7.21352,20.6666,11.99998C20.6753,14.3981,19.6791,16.6902,17.92,18.32C17.6283,18.6101,17.6663,19.0926,18,19.3333L19.5866,20.6666L11.99998,20.6666Z" fill="#0256FF" fill-opacity="1"/></g></g></g></svg>