<svg xmlns="http://www.w3.org/2000/svg" xmlns:xlink="http://www.w3.org/1999/xlink" fill="none" version="1.1" width="24" height="24" viewBox="0 0 24 24"><defs><clipPath id="master_svg0_82_14806"><rect x="0" y="0" width="24" height="24" rx="0"/></clipPath></defs><g clip-path="url(#master_svg0_82_14806)"><g><path d="M3,5C3,5,3,19,3,19C3,20.1,3.89,21,5,21C5,21,19,21,19,21C20.1,21,21,20.1,21,19C21,19,21,5,21,5C21,3.9,20.1,3,19,3C19,3,5,3,5,3C3.89,3,3,3.9,3,5C3,5,3,5,3,5ZM15,9C15,10.66,13.66,12,12,12C10.34,12,9,10.66,9,9C9,7.34,10.34,6,12,6C13.66,6,15,7.34,15,9C15,9,15,9,15,9ZM6,17C6,15,10,13.9,12,13.9C14,13.9,18,15,18,17C18,17,18,18,18,18C18,18,6,18,6,18C6,18,6,17,6,17C6,17,6,17,6,17Z" fill="#0256FF" fill-opacity="1"/></g><g></g></g></svg>