<svg xmlns="http://www.w3.org/2000/svg" xmlns:xlink="http://www.w3.org/1999/xlink" fill="none" version="1.1" width="25" height="25" viewBox="0 0 25 25"><defs><clipPath id="master_svg0_82_02713"><rect x="0" y="0" width="25" height="25" rx="0"/></clipPath></defs><g clip-path="url(#master_svg0_82_02713)"><g><path d="M10.448884921874999,12.86355546875C11.824364921875,11.74739546875,11.966164921875,9.69950546875,10.757654921875,8.40441946875C9.549144921875001,7.10933346875,7.496354921875,7.10933346875,6.287844921875,8.40442046875C5.079334921875,9.69950546875,5.2211349218750005,11.74739546875,6.596614921875,12.86355546875C4.999564921875,13.61069546875,3.978668551875,15.21402546875,3.977294921875,16.97719546875C3.977294921875,17.290995468749998,4.231678921875,17.545405468749998,4.545476921875,17.545405468749998C4.859274921875,17.545405468749998,5.113654921875,17.290995468749998,5.113654921875,16.97719546875C5.113654921875,15.09440546875,6.639964921875,13.56810546875,8.522744921874999,13.56810546875C10.405534921874999,13.56810546875,11.931844921875001,15.09440546875,11.931844921875001,16.97719546875C11.931844921875001,17.290995468749998,12.186224921875,17.545405468749998,12.500024921875,17.545405468749998C12.813824921875,17.545405468749998,13.068204921875,17.290995468749998,13.068204921875,16.97719546875C13.066834921875,15.21402546875,12.045934921875,13.61070546875,10.448884921874999,12.86355546875ZM6.602294921875,10.51128546875C6.602294921875,9.45064546875,7.462114921875,8.59082546875,8.522744921874999,8.59082546875C9.583384921875,8.59082546875,10.443204921875001,9.45064546875,10.443204921875001,10.51128546875C10.443204921875001,11.571925468749999,9.583384921875,12.43173546875,8.522744921874999,12.43173546875C7.463404921875,12.42861546875,6.605414921875,11.57062546875,6.602294921875,10.51128546875ZM17.045494921874997,9.09082546875L19.318194921874998,9.09082546875C19.631794921875,9.09052546875,19.885794921875,8.83622546875,19.885794921875,8.52264546875C19.885794921875,8.20906646875,19.631794921875,7.95477246875,19.318194921874998,7.95446546875L17.045494921874997,7.95446546875C16.731894921875,7.95477246875,16.477894921875,8.20906646875,16.477894921875,8.52264546875C16.477894921875,8.83622546875,16.731894921875,9.09052546875,17.045494921874997,9.09082546875Z" fill="#2CC069" fill-opacity="1"/></g><g><path d="M23.01131015625,13.3806974609375L23.01131015625,7.3863774609375C23.01131015625,6.1311774609375,21.99381015625,5.1136474609375,20.73861015625,5.1136474609375L3.69314015625,5.1136474609375C2.43794015625,5.1136478015355,1.420410581997,6.1311874609375,1.420410667147,7.3863774609375L1.420410667147,17.6136474609375C1.420410581997,18.868847460937502,2.43795015625,19.8863474609375,3.69314015625,19.8863474609375L15.90901015625,19.8863474609375C17.72621015625,21.7481474609375,20.69311015625,21.8310474609375,22.61151015625,20.0738474609375C24.52991015625,18.3166474609375,24.70691015625,15.3538474609375,23.01131015625,13.3806974609375ZM3.69314015625,18.750047460937502C3.06554015625,18.750047460937502,2.55677015625,18.2412474609375,2.55677015625,17.6136474609375L2.55677015625,7.3863774609375C2.55677015625,6.7587774609375,3.06554015625,6.2500074609375,3.69314015625,6.2500074609375L20.73861015625,6.2500074609375C21.36621015625,6.2500074609375,21.87491015625,6.7587774609375,21.87491015625,7.3863774609375L21.87491015625,12.3863774609375C20.38761015625,11.453807460937501,18.51101015625,11.4028974609375,16.97531015625,12.2534574609375C15.43961015625,13.1040174609375,14.48711015625,14.7217474609375,14.48861015625,16.477247460937498C14.48601015625,17.2703474609375,14.68131015625,18.0514474609375,15.05681015625,18.750047460937502L3.69314015625,18.750047460937502ZM19.31811015625,20.170447460937503C18.26951015625,20.1690474609375,17.27131015625,19.7205474609375,16.573810156249998,18.937547460937502C15.29801015625,17.4190474609375,15.44931015625,15.1639474609375,16.91661015625,13.8295574609375C18.38381015625,12.4951374609375,20.64311015625,12.5578474609375,22.03401015625,13.9715974609375C23.02971015625,15.0497474609375,23.29261015625,16.6151474609375,22.70361015625,17.9593474609375C22.11471015625,19.303647460937498,20.78571015625,20.1715474609375,19.31811015625,20.170447460937503Z" fill="#0256FF" fill-opacity="1"/></g><g><path d="M20.3636988671875,15.3409185625L18.9602888671875,16.7443315625L18.5568798671875,16.3466015625C18.3346188671875,16.1225125625,17.9723208671875,16.1225125625,17.7500618671875,16.3466015625C17.5297641671875,16.5682115625,17.5297641671875,16.9261215625,17.7500618671875,17.1477415625L18.5568798671875,17.9545515625C18.7784888671875,18.1748515625,19.1363988671875,18.1748515625,19.3580188671875,17.9545515625L21.1705188671875,16.1420555625C21.390818867187498,15.920443562500001,21.390818867187498,15.5625315625,21.1705188671875,15.3409185625C20.9482588671875,15.1168286625,20.5859588671875,15.1168286625,20.3636988671875,15.3409185625Z" fill="#0256FF" fill-opacity="1"/></g></g></svg>