<svg xmlns="http://www.w3.org/2000/svg" xmlns:xlink="http://www.w3.org/1999/xlink" fill="none" version="1.1" width="60" height="60" viewBox="0 0 60 60"><defs><clipPath id="master_svg0_162_06695"><rect x="0" y="0" width="60" height="60" rx="15"/></clipPath><filter id="master_svg1_162_06697" filterUnits="objectBoundingBox" color-interpolation-filters="sRGB" x="-0.5" y="-0.4" width="2" height="2"><feFlood flood-opacity="0" result="BackgroundImageFix"/><feColorMatrix in="SourceAlpha" type="matrix" values="0 0 0 0 0 0 0 0 0 0 0 0 0 0 0 0 0 0 127 0"/><feOffset dy="4" dx="0"/><feGaussianBlur stdDeviation="5"/><feColorMatrix type="matrix" values="0 0 0 0 0.6078431606292725 0 0 0 0 0.7529411911964417 0 0 0 0 0.9764705896377563 0 0 0 0.3019607961177826 0"/><feBlend mode="normal" in2="BackgroundImageFix" result="effect1_dropShadow"/><feBlend mode="normal" in="SourceGraphic" in2="effect1_dropShadow" result="shape"/></filter><clipPath id="master_svg2_162_06697"><rect x="10" y="10" width="40" height="40" rx="0"/></clipPath></defs><g clip-path="url(#master_svg0_162_06695)"><rect x="0" y="0" width="60" height="60" rx="15" fill="#E4EEFF" fill-opacity="1"/><g filter="url(#master_svg1_162_06697)"><g clip-path="url(#master_svg2_162_06697)"><g><path d="M38.3333740234375,35.00001298828125C42.9357740234375,35.00001298828125,46.6666740234375,38.73091298828125,46.6666740234375,43.33331298828125L46.6666740234375,46.66661298828125L13.3333742959155,46.66661298828125L13.3333742959155,43.33331298828125C13.3325380594375,38.79271298828125,16.9669440234375,35.08711298828125,21.5067140234375,35.00001298828125C23.8137740234375,37.14631298828125,26.849074023437502,38.33751298828125,30.0000740234375,38.33331298828125C33.1501740234375,38.337912988281246,36.1850740234375,37.14861298828125,38.4933740234375,35.00501298828125L38.3333740234375,35.00001298828125ZM30.0000740234375,13.33331435067125C35.9851740234375,13.33039256828125,40.8386740234375,18.18149298828125,40.8386740234375,24.16661298828125C40.8386740234375,30.15181298828125,35.9851740234375,35.00291298828125,30.0000740234375,35.00001298828125C24.0189740234375,34.997112988281245,19.1719940234375,30.14771298828125,19.1719940234375,24.16661298828125C19.1719940234375,18.18562298828125,24.0189740234375,13.33623422828125,30.0000740234375,13.33331435067125Z" fill="#9BC0F9" fill-opacity="1"/></g></g></g></g></svg>