<svg xmlns="http://www.w3.org/2000/svg" xmlns:xlink="http://www.w3.org/1999/xlink" fill="none" version="1.1" width="25" height="25" viewBox="0 0 25 25"><defs><clipPath id="master_svg0_82_02708"><rect x="0" y="0" width="25" height="25" rx="0"/></clipPath></defs><g clip-path="url(#master_svg0_82_02708)"><g><path d="M12.4658296875,1.5625C6.3769496875,1.5625,1.4404296875,6.4917,1.4404296875,12.5732C1.4404296875,18.6548,6.3769496875,23.584,12.4658296875,23.584C18.5547296875,23.584,23.4912296875,18.6548,23.4912296875,12.5732C23.4912296875,6.4917,18.5547296875,1.5625,12.4658296875,1.5625ZM12.4658296875,22.5757C6.9335896875,22.5757,2.4487296875,18.0981,2.4487296875,12.5732C2.4487296875,7.04834,6.9335896875,2.5708,12.4633296875,2.5708C17.9956296875,2.5708,22.4780296875,7.04834,22.4780296875,12.5732C22.4804296875,18.0981,17.9956296875,22.5757,12.4658296875,22.5757Z" fill="#0256FF" fill-opacity="1"/><path d="M22.7168296875,16.8983Q23.5912296875,14.8338,23.5912296875,12.5732Q23.5912296875,10.31268,22.7168296875,8.24816Q21.8723296875,6.25422,20.3325296875,4.7165300000000006Q18.7927296875,3.17889,16.796229687500002,2.335592Q14.7291296875,1.4625,12.4658296875,1.4625Q10.2025396875,1.4625,8.1354496875,2.335592Q6.1388996875,3.17889,4.5991396875,4.7165300000000006Q3.0593196875,6.25423,2.2148186875,8.24816Q1.3404296875,10.31266,1.3404296875,12.5732Q1.3404296875,14.8338,2.2148186875,16.8983Q3.0593196875,18.8923,4.5991396875,20.43Q6.1388596875,21.9675,8.1354496875,22.8109Q10.2025196875,23.684,12.4658296875,23.684Q14.7291296875,23.684,16.796229687500002,22.8109Q18.7927296875,21.9676,20.3325296875,20.43Q21.8723296875,18.8923,22.7168296875,16.8983ZM22.5326296875,8.32616Q23.3912296875,10.35329,23.3912296875,12.5732Q23.3912296875,14.7932,22.5326296875,16.8203Q21.7034296875,18.7783,20.1911296875,20.2884Q18.6790296875,21.7985,16.718329687500002,22.6267Q14.6886296875,23.484,12.4658296875,23.484Q10.2430196875,23.484,8.2132696875,22.6267Q6.2525996875,21.7985,4.7404596875,20.2884Q3.2282496875,18.7783,2.3989816875,16.8203Q1.5404296875,14.7932,1.5404296875,12.5732Q1.5404296875,10.35327,2.3989816875,8.32616Q3.2282596875,6.36817,4.7404596875,4.85805Q6.2526396875,3.34796,8.2132696875,2.519831Q10.2430296875,1.6625,12.4658296875,1.6625Q14.6886296875,1.6625,16.718329687500002,2.519832Q18.6789296875,3.34796,20.1911296875,4.85805Q21.7034296875,6.36815,22.5326296875,8.32616ZM21.7843296875,16.5059Q22.5789296875,14.6287,22.5780296875,12.5732L22.5780296875,12.5732Q22.5780296875,10.51769,21.7833296875,8.640550000000001Q21.0157296875,6.82755,19.6159296875,5.42943Q18.2162296875,4.031359999999999,16.4010296875,3.26462Q14.5216296875,2.470801,12.4634296875,2.470801Q10.4060196875,2.470801,8.526799687499999,3.26462Q6.7116496875,4.03138,5.3117196875,5.42943Q3.9116796875,6.82758,3.1438096875,8.64054Q2.3487306875,10.51776,2.3487306875,12.5732Q2.3487306875,14.6288,3.1438496875,16.5059Q3.9117996875,18.319,5.3120296875,19.7171Q6.7122196875,21.1151,8.5278396875,21.8819Q10.4075696875,22.6757,12.4658296875,22.6757Q14.5232296875,22.6757,16.4023296875,21.8819Q18.2175296875,21.1151,19.6171296875,19.7171Q21.0170296875,18.3189,21.7843296875,16.5059ZM21.5991296875,8.718530000000001Q22.3780296875,10.55829,22.3780296875,12.5732L22.3780296875,12.5733Q22.3789296875,14.5881,21.6002296875,16.428Q20.8480296875,18.205,19.4758296875,19.5756Q18.1037296875,20.946,16.3245296875,21.6976Q14.4827296875,22.4757,12.4658296875,22.4757Q10.4480596875,22.4757,8.6056496875,21.6976Q6.8259396875,20.9461,5.4533496875,19.5755Q4.0807396874999995,18.205,3.3280096875,16.4279Q2.5487296875,14.5882,2.5487296875,12.5732Q2.5487296875,10.55837,3.3279696875,8.71854Q4.0806196875000005,6.94151,5.4530496875,5.57094Q6.8253896875,4.20046,8.604629687500001,3.44886Q10.4465296875,2.6708,12.4634296875,2.6708Q14.4811296875,2.6708,16.3231296875,3.44886Q18.1025296875,4.200419999999999,19.4746296875,5.57094Q20.8467296875,6.94146,21.5991296875,8.718530000000001Z" fill-rule="evenodd" fill="#0256FF" fill-opacity="1"/></g><g><path d="M19.448278515625,10.644526875C19.328678515625,10.300296875,19.021078515625,10.046386875,18.652378515625,9.992676875L15.056208515625,9.458006875L13.491268515625,6.213378875C13.327698515625,5.871581875,12.976128515625,5.654296875,12.587948515625001,5.654296875C12.202208515625,5.654296875,11.848208515625,5.871581875,11.684628515625,6.213378875L10.122128515625,9.458006875L6.5259385156250005,9.992676875C6.157286515625,10.046386875,5.849668515625,10.300296875,5.730039915625,10.644526875C5.610411015625,10.991206875,5.700743015625,11.372066875,5.961973515625,11.630856875L8.598688515625,14.262696875L7.988338515625,17.912596875C7.9273085156250005,18.278796874999998,8.085998515625,18.649896875,8.398498515625,18.864696875C8.569398515625,18.981896875,8.772028515625,19.042996875,8.972228515625,19.042996875C9.138238515625,19.042996875,9.304258515625,19.001496875,9.455628515625,18.920896875L12.590388515625001,17.233896875L15.727578515625,18.920896875C15.878978515625,19.001496875,16.044978515625,19.042996875,16.210978515625,19.042996875C16.413678515625,19.042996875,16.613878515625,18.981896875,16.787178515625,18.864696875C17.099678515625,18.649896875,17.258378515624997,18.281296875000002,17.197278515625,17.912596875L16.584578515624997,14.262696875L19.221278515625002,11.630856875C19.477578515624998,11.369626875,19.567978515625,10.988766875,19.448278515625,10.644526875ZM15.866778515625,13.583986875C15.644588515625,13.803706875,15.544488515625,14.113766875,15.595758515625,14.418946875L16.206078515625002,18.068896875L13.071348515625,16.381796875C12.919978515625,16.301296875,12.753968515625001,16.259796875,12.587948515625001,16.259796875C12.421938515625001,16.259796875,12.255918515625,16.298796875,12.104548515625,16.381796875L8.969788515625,18.066396875000002L9.580138515625,14.416506875C9.631408515625,14.111326875,9.531308515625,13.801266875,9.309138515625,13.581546875L6.672422515625,10.952146875L10.268618515625,10.417476875C10.598208515625,10.368656875,10.881408515625,10.163576875,11.020568515625001,9.870606875L12.583068515625001,6.625976875L14.148008515625,9.870606875C14.289608515625,10.163576875,14.572808515625,10.368656875,14.899958515625,10.417476875L18.496178515624997,10.952146875L15.866778515625,13.583986875Z" fill="#2CC069" fill-opacity="1"/></g></g></svg>