<svg xmlns="http://www.w3.org/2000/svg" xmlns:xlink="http://www.w3.org/1999/xlink" fill="none" version="1.1" width="25" height="25" viewBox="0 0 25 25"><defs><clipPath id="master_svg0_82_02688"><rect x="0" y="0" width="25" height="25" rx="0"/></clipPath></defs><g clip-path="url(#master_svg0_82_02688)"><g><path d="M14.787633984375,2.0678706250000003C14.802233984375,2.0678706250000003,14.816833984375,2.0678706250000003,14.826633984375,2.0703106250000003C14.851033984375,2.202150625,14.846133984375,2.5366206250000003,14.636233984375,3.100590625L12.817333984375,8.037110625C12.346133984375,9.313960625,11.254833984375,10.239260625,10.222153984375,10.239260625C10.029283984375,10.239260625,9.841293984375,10.207520625,9.665513984375,10.141600625C8.510733984375001,9.716800625,7.919913984375,8.432620625,8.344713984375,7.277830625C8.872063984375,5.849610625,10.878893984375,3.828120625,12.639133984375,2.9541006249999997L13.818333984375,2.368160625C14.367633984375,2.097170625,14.677733984375,2.0678706250000003,14.787633984375,2.0678706250000003ZM16.950633984375,8.217770625C17.211933984375,8.217770625,17.468233984375,8.264160624999999,17.712433984375,8.354490625C19.140633984375,8.881840624999999,21.162133984375,10.888670625,22.036133984375,12.648890625L22.622033984375,13.828090625C22.890633984375,14.367690625,22.929633984375,14.699690625,22.922333984375,14.833990625C22.893033984375,14.838890625,22.849133984375,14.843790625,22.785633984375,14.843790625C22.622033984375,14.843790625,22.336433984375,14.809590625,21.889633984375,14.645990625L16.953133984375,12.827190625C15.395533984375,12.253390625,14.431133984375,10.810550625,14.848633984375,9.675290625C15.170933984375,8.803710625,16.015633984375,8.217770625,16.950633984375,8.217770625ZM2.197253984375,10.156250625C2.360823984375,10.156250625,2.646473984375,10.190430625,3.093253984375,10.354000625L8.029773984375,12.172890625C8.823233984375001,12.465790625,9.499503984375,13.000490625,9.887683984375,13.640090625C10.234363984375,14.213890625,10.322253984375,14.811990625,10.134263984375,15.324690625C9.812003984375,16.196290625,8.969713984375,16.782190625,8.034653984375,16.782190625C7.773423984375,16.782190625,7.517073984375,16.735790625,7.272933984375,16.645490625C5.844713984375,16.120590625,3.823233984375,14.111290625,2.949203984375,12.351090625L2.3632739843749997,11.171890625C2.094713984375,10.632320625,2.0556539843749997,10.300290625,2.0629739843749997,10.166010625C2.092273984375,10.161130625,2.136223984375,10.156250625,2.197253984375,10.156250625ZM14.760733984375,14.758290625C14.953633984375,14.758290625,15.141633984375,14.789990625,15.317333984375,14.855990625C16.472133984375,15.280790625,17.062933984375,16.564990625,16.638133984375,17.719690625C16.113233984375,19.147990625,14.104033984375,21.169390625,12.343733984375,22.045890625L11.164533984375,22.631790625C10.620103984375,22.902790625,10.307603984375,22.932090625,10.197743984375,22.932090625C10.183093984375,22.932090625,10.168443984375,22.932090625,10.158683984375,22.929690625C10.134263984375,22.797890625,10.139143984375,22.463390625,10.349113984375,21.899390625L12.167933984375,16.962890625C12.634233984375,15.685990625,13.728033984375,14.758290625,14.760733984375,14.758290625ZM14.787633984375,1.025390625C14.399433984375,1.025390625,13.916033984375,1.157226625,13.356933984375,1.433105625L12.177733984375,2.019042625C10.153793984375,3.024900625,7.990713984375,5.229490625,7.368153984375,6.916500625C6.745593984375,8.608400625,7.617173984375,10.498050625,9.306633984375,11.120590625C9.604483984375,11.230490625,9.912093984375,11.281690625,10.222153984375,11.281690625C11.669933984375,11.281690625,13.154333984375,10.141600625,13.796333984375,8.396000625L15.615233984375,3.459470625C16.181633984375,1.926269625,15.805633984375,1.025390625,14.787633984375,1.025390625ZM16.950633984375,7.175290625C15.617633984375,7.175290625,14.357933984375,7.995600625,13.872033984375,9.316410625C13.249533984375,11.005860625,14.475133984375,13.027390625,16.594233984375002,13.806190625L21.530733984375,15.624990625C22.016633984375,15.803190625,22.436533984375,15.888690625,22.788033984375,15.888690625C23.967233984375,15.888690625,24.333533984375,14.926790625,23.559533984375,13.366690625L22.973633984375,12.187490625C21.967733984375,10.163570625,19.763133984375,8.000490625000001,18.076133984375,7.377930625C17.702633984375,7.238770625,17.324233984375,7.175290625,16.950633984375,7.175290625ZM2.197253984375,9.111330625C1.015613704375,9.111330625,0.651843984375,10.073240625,1.425769984375,11.633290625L2.011706984375,12.812490625C3.017563984375,14.836390625,5.222153984375,16.999490625,6.909163984375,17.622090625C7.277823984375,17.758790625,7.658683984375,17.822290625,8.032213984375,17.822290625C9.365223984375,17.822290625,10.624983984375,17.001990624999998,11.110833984375,15.681190625C11.733433984375,13.991690625,10.507803984375,11.970190625,8.388663984375,11.191390625L3.454573984375,9.375000625C2.968733984375,9.196780625,2.546373984375,9.111330625,2.197253984375,9.111330625ZM14.760733984375,13.715790625C13.312933984375,13.715790625,11.828633984375,14.855990625,11.186533984375,16.601590625L9.367663984375,21.538090625C8.803703984375,23.071290625,9.179673984375,23.974590625,10.197743984375,23.974590625C10.585923984375,23.974590625,11.069333984375,23.842790625,11.628433984375,23.566890625L12.807633984375,22.980990625C14.831533984375,21.975090625,16.994633984375,19.770490625,17.617133984375,18.083490625C18.239733984375,16.394090625,17.365733984375,14.504390625,15.676233984375,13.881790625C15.378433984375,13.769490625,15.070833984375,13.715790625,14.760733984375,13.715790625Z" fill="#2CC069" fill-opacity="1"/></g><g><path d="M14.787633984375,2.0678706250000003C14.802233984375,2.0678706250000003,14.816833984375,2.0678706250000003,14.826633984375,2.0703106250000003C14.851033984375,2.202150625,14.846133984375,2.5366206250000003,14.636233984375,3.100590625L12.817333984375,8.037110625C12.346133984375,9.313960625,11.254833984375,10.239260625,10.222153984375,10.239260625C10.029283984375,10.239260625,9.841293984375,10.207520625,9.665513984375,10.141600625C8.510733984375001,9.716800625,7.919913984375,8.432620625,8.344713984375,7.277830625C8.872063984375,5.849610625,10.878893984375,3.828120625,12.639133984375,2.9541006249999997L13.818333984375,2.368160625C14.367633984375,2.097170625,14.677733984375,2.0678706250000003,14.787633984375,2.0678706250000003ZM2.197253984375,10.156250625C2.360823984375,10.156250625,2.646473984375,10.190430625,3.093253984375,10.354000625L8.029773984375,12.172890625C8.823233984375001,12.465790625,9.499503984375,13.000490625,9.887683984375,13.640090625C10.234363984375,14.213890625,10.322253984375,14.811990625,10.134263984375,15.324690625C9.812003984375,16.196290625,8.969713984375,16.782190625,8.034653984375,16.782190625C7.773423984375,16.782190625,7.517073984375,16.735790625,7.272933984375,16.645490625C5.844713984375,16.120590625,3.823233984375,14.111290625,2.949203984375,12.351090625L2.3632739843749997,11.171890625C2.094713984375,10.632320625,2.0556539843749997,10.300290625,2.0629739843749997,10.166010625C2.092273984375,10.161130625,2.136223984375,10.156250625,2.197253984375,10.156250625ZM14.760733984375,14.758290625C14.953633984375,14.758290625,15.141633984375,14.789990625,15.317333984375,14.855990625C16.472133984375,15.280790625,17.062933984375,16.564990625,16.638133984375,17.719690625C16.113233984375,19.147990625,14.104033984375,21.169390625,12.343733984375,22.045890625L11.164533984375,22.631790625C10.620103984375,22.902790625,10.307603984375,22.932090625,10.197743984375,22.932090625C10.183093984375,22.932090625,10.168443984375,22.932090625,10.158683984375,22.929690625C10.134263984375,22.797890625,10.139143984375,22.463390625,10.349113984375,21.899390625L12.167933984375,16.962890625C12.634233984375,15.685990625,13.728033984375,14.758290625,14.760733984375,14.758290625ZM14.787633984375,1.025390625C14.399433984375,1.025390625,13.916033984375,1.157226625,13.356933984375,1.433105625L12.177733984375,2.019042625C10.153793984375,3.024900625,7.990713984375,5.229490625,7.368153984375,6.916500625C6.745593984375,8.608400625,7.617173984375,10.498050625,9.306633984375,11.120590625C9.604483984375,11.230490625,9.912093984375,11.281690625,10.222153984375,11.281690625C11.669933984375,11.281690625,13.154333984375,10.141600625,13.796333984375,8.396000625L15.615233984375,3.459470625C16.181633984375,1.926269625,15.805633984375,1.025390625,14.787633984375,1.025390625ZM2.197253984375,9.111330625C1.015613704375,9.111330625,0.651843984375,10.073240625,1.425769984375,11.633290625L2.011706984375,12.812490625C3.017563984375,14.836390625,5.222153984375,16.999490625,6.909163984375,17.622090625C7.277823984375,17.758790625,7.658683984375,17.822290625,8.032213984375,17.822290625C9.365223984375,17.822290625,10.624983984375,17.001990624999998,11.110833984375,15.681190625C11.733433984375,13.991690625,10.507803984375,11.970190625,8.388663984375,11.191390625L3.454573984375,9.375000625C2.968733984375,9.196780625,2.546373984375,9.111330625,2.197253984375,9.111330625ZM14.760733984375,13.715790625C13.312933984375,13.715790625,11.828633984375,14.855990625,11.186533984375,16.601590625L9.367663984375,21.538090625C8.803703984375,23.071290625,9.179673984375,23.974590625,10.197743984375,23.974590625C10.585923984375,23.974590625,11.069333984375,23.842790625,11.628433984375,23.566890625L12.807633984375,22.980990625C14.831533984375,21.975090625,16.994633984375,19.770490625,17.617133984375,18.083490625C18.239733984375,16.394090625,17.365733984375,14.504390625,15.676233984375,13.881790625C15.378433984375,13.769490625,15.070833984375,13.715790625,14.760733984375,13.715790625Z" fill="#0256FF" fill-opacity="1"/></g></g></svg>