<svg xmlns="http://www.w3.org/2000/svg" xmlns:xlink="http://www.w3.org/1999/xlink" fill="none" version="1.1" width="20" height="20" viewBox="0 0 20 20"><defs><clipPath id="master_svg0_82_02454"><rect x="0" y="0" width="20" height="20" rx="0"/></clipPath></defs><g clip-path="url(#master_svg0_82_02454)"><g><path d="M15,7.5C15,4.73858,12.76142,2.5,10,2.5C7.23857,2.5,5,4.73858,5,7.5C5,10.26142,7.23857,12.5,10,12.5C12.76142,12.5,15,10.26142,15,7.5ZM16.25,7.5C16.25,10.95178,13.45178,13.75,10,13.75C6.548220000000001,13.75,3.75,10.95178,3.75,7.5C3.75,4.048220000000001,6.548220000000001,1.250000190735,10,1.25C13.45178,1.250000190735,16.25,4.048220000000001,16.25,7.5Z" fill="#FA5151" fill-opacity="1"/></g><g><path d="M9.375,13.125C9.375,12.779822,9.654822,12.5,10,12.5C10.345178,12.5,10.625,12.779822,10.625,13.125L10.625,17.5C10.625,17.84518,10.345178,18.125,10,18.125C9.654822,18.125,9.375,17.84518,9.375,17.5L9.375,13.125Z" fill="#FA5151" fill-opacity="1"/></g><g><path d="M8.125,16.25C7.779822,16.25,7.5,15.970178,7.5,15.625C7.5,15.279822,7.779822,15,8.125,15L11.875,15C12.22018,15,12.5,15.279822,12.5,15.625C12.5,15.970178,12.22018,16.25,11.875,16.25L8.125,16.25Z" fill="#FA5151" fill-opacity="1"/></g></g></svg>