<svg xmlns="http://www.w3.org/2000/svg" xmlns:xlink="http://www.w3.org/1999/xlink" fill="none" version="1.1" width="20" height="20" viewBox="0 0 20 20"><defs><clipPath id="master_svg0_82_02458"><rect x="0" y="0" width="20" height="20" rx="0"/></clipPath></defs><g clip-path="url(#master_svg0_82_02458)"><g><path d="M15,12.5C15,9.738579999999999,12.76142,7.5,10,7.5C7.23857,7.5,5,9.738579999999999,5,12.5C5,15.26142,7.23857,17.5,10,17.5C12.76142,17.5,15,15.26142,15,12.5ZM16.25,12.5C16.25,15.95178,13.45178,18.75,10,18.75C6.548220000000001,18.75,3.75,15.95178,3.75,12.5C3.75,9.04822,6.548220000000001,6.25,10,6.25C13.45178,6.25,16.25,9.04822,16.25,12.5Z" fill="#2CC069" fill-opacity="1"/></g><g><path d="M9.375,3.125C9.375,2.7798220000000002,9.654822,2.5,10,2.5C10.345178,2.5,10.625,2.7798220000000002,10.625,3.125L10.625,6.875C10.625,7.22018,10.345178,7.5,10,7.5C9.654822,7.5,9.375,7.22018,9.375,6.875L9.375,3.125Z" fill="#2CC069" fill-opacity="1"/></g><g><path d="M7.9437465234375,5.443768925781249C7.6986675234375,5.68884892578125,7.3013195234375,5.68884892578125,7.0562435234375,5.443768925781249C6.8111671234375,5.19869892578125,6.8111671234375,4.80134892578125,7.0562435234375,4.55626892578125L9.5562465234375,2.05627292578125C9.8007265234375,1.80977442578125,10.1992565234375,1.80977442578125,10.4437465234375,2.05627292578125L12.9437465234375,4.55626892578125C13.1884965234375,4.801408925781249,13.188346523437499,5.19848892578125,12.943406523437499,5.44342892578125C12.6984565234375,5.6883689257812495,12.3013765234375,5.688528925781251,12.056246523437501,5.443768925781249L9.999996523437499,3.3812689257812503L7.9437465234375,5.443768925781249Z" fill="#2CC069" fill-opacity="1"/></g></g></svg>