<svg xmlns="http://www.w3.org/2000/svg" xmlns:xlink="http://www.w3.org/1999/xlink" fill="none" version="1.1" width="25" height="25" viewBox="0 0 25 25"><defs><clipPath id="master_svg0_82_02726"><rect x="0" y="0" width="25" height="25" rx="0"/></clipPath></defs><g clip-path="url(#master_svg0_82_02726)"><g><path d="M16.145024414062497,13.827509765625C17.1925244140625,12.875009765625,17.8513244140625,11.511259765624999,17.8513244140625,9.997509765625C17.8513244140625,7.126259765625,15.4862244140625,4.791259765625,12.5775244140625,4.791259765625C9.6687744140625,4.791259765625,7.305024414062499,7.126259765625,7.305024414062499,9.997509765625C7.305024414062499,11.511259765624999,7.9625244140625,12.876259765625,9.0112744140625,13.827509765625C5.8275244140625,15.167459765625,3.6500244140625,18.304959765625,3.6500244140625,21.811259765625C3.6500244140625,22.010059765625,3.7287744140625,22.201259765625,3.8700244140625,22.341259765625C4.0103074140625,22.482259765625,4.2010964140625,22.561459765625,4.4000244140625,22.561259765625L20.7587244140625,22.561259765625C21.1725244140625,22.561259765625,21.5087244140625,22.225059765625,21.5087244140625,21.811259765625C21.5075244140625,18.305059765625,19.3287244140625,15.167559765625,16.145024414062497,13.827509765625ZM8.805024414062501,9.997509765625C8.805024414062501,7.953759765625,10.4975244140625,6.291259765625,12.5787744140625,6.291259765625C14.6600244140625,6.291259765625,16.3525244140625,7.953759765625,16.3525244140625,9.997509765625C16.3525244140625,11.515009765624999,15.4187244140625,12.822509765625,14.0862244140625,13.395009765625C14.0512244140625,13.410009765625,14.0162244140625,13.423759765625,13.9812244140625,13.437509765625C13.9575244140625,13.447509765625,13.9337244140625,13.456259765625,13.9087244140625,13.465009765625C13.8737244140625,13.478759765625,13.8375244140625,13.490009765625,13.8012244140625,13.502509765625C13.7762244140625,13.511259765625,13.7500244140625,13.520009765625,13.7250244140625,13.527509765625L13.6237744140625,13.557509765625C13.5950244140625,13.565009765625,13.5662744140625,13.573759765625,13.5375244140625,13.581259765625C13.5075244140625,13.588759765625,13.4762744140625,13.596259765625,13.4450244140625,13.603759765625L13.3487744140625,13.626259765625C13.3212744140625,13.632509765625,13.2925244140625,13.636259765625,13.2650244140625,13.641259765625C13.2300244140625,13.647509765625,13.1950244140625,13.655009765625,13.1600244140625,13.660009765625L13.0762744140625,13.671259765625C13.0400244140625,13.676259765625,13.0050244140625,13.681259765625,12.9687744140625,13.685009765625C12.9350244140625,13.688759765625,12.9025244140625,13.690009765625,12.8687744140625,13.692509765625L12.7750244140625,13.700009765625C12.7100244140625,13.703759765625,12.6450244140625,13.705009765625,12.5787744140625,13.705009765625C12.5125244140625,13.705009765625,12.4475244140625,13.703759765625,12.3825244140625,13.700009765625C12.3512744140625,13.698759765625,12.3200244140625,13.695009765625,12.2900244140625,13.692509765625C12.2562744140625,13.690009765625,12.2225244140625,13.688759765625,12.1900244140625,13.685009765625C12.1537744140625,13.681259765625,12.1187744140625,13.676259765625,12.0825244140625,13.671259765625C12.0550244140625,13.667509765625,12.0262744140625,13.665009765625,11.9987744140625,13.660009765625C11.9637744140625,13.655009765625,11.9287744140625,13.647509765625,11.8937744140625,13.641259765625C11.8650244140625,13.636259765625,11.8375244140625,13.631259765625,11.8100244140625,13.626259765625C11.7775244140625,13.620009765625,11.7450244140625,13.611259765625,11.7137744140625,13.603759765625C11.6825244140625,13.596259765625,11.6525244140625,13.590009765625,11.621274414062501,13.581259765625C11.592524414062499,13.573759765625,11.5637744140625,13.565009765625,11.5350244140625,13.557509765625C11.5012744140625,13.547509765625,11.467524414062499,13.538759765625,11.433774414062501,13.527509765625C11.4075244140625,13.520009765625,11.3825244140625,13.510009765625,11.3575244140625,13.502509765625C11.3212744140625,13.490009765625,11.2862744140625,13.477509765625,11.2500244140625,13.465009765625C11.2262744140625,13.456259765625,11.2012744140625,13.446259765625,11.1775244140625,13.437509765625C11.1425244140625,13.423759765625,11.1075244140625,13.410009765625,11.0725244140625,13.395009765625C9.738774414062501,12.821259765625,8.805024414062501,11.515009765624999,8.805024414062501,9.997509765625ZM5.1887744140625,21.061259765625C5.5100244140625,18.100059765624998,7.7050244140625,15.580059765625,10.6700244140625,14.851259765625C10.6850244140625,14.857559765625,10.7000244140625,14.861259765625,10.715024414062501,14.867559765625C10.7550244140625,14.882559765625,10.7950244140625,14.896259765625,10.836274414062501,14.911259765625C10.8762744140625,14.925059765625,10.9162744140625,14.938759765625,10.9562744140625,14.951259765625C10.9937744140625,14.963759765625,11.0325244140625,14.975059765625,11.0700244140625,14.986259765625C11.1150244140625,15.000059765625,11.1587744140625,15.012559765625,11.2037744140625,15.023759765625C11.238774414062501,15.032559765625,11.273774414062501,15.042559765625,11.308774414062501,15.051259765625C11.3575244140625,15.063759765625,11.4075244140625,15.075059765625,11.457524414062501,15.085059765625C11.4900244140625,15.092559765625,11.5212744140625,15.098759765625,11.553774414062499,15.105059765625C11.6075244140625,15.115059765625,11.6600244140625,15.125059765625,11.7137744140625,15.133759765625L11.8037744140625,15.148759765625C11.8600244140625,15.157559765625,11.9162744140625,15.163759765625,11.9737744140625,15.170059765625C12.0025244140625,15.173759765625,12.0312744140625,15.177559765625,12.0600244140625,15.180059765625C12.1212744140625,15.186259765625,12.1825244140625,15.190059765625,12.2437744140625,15.193759765625C12.2687744140625,15.195059765625,12.2937744140625,15.197559765625,12.3187744140625,15.198759765625C12.4050244140625,15.202559765625,12.4925244140625,15.205059765625,12.5787744140625,15.205059765625C12.6650244140625,15.205059765625,12.7525244140625,15.202559765625,12.8387744140625,15.198759765625C12.8637744140625,15.197559765625,12.8887744140625,15.195059765625,12.9137744140625,15.193759765625C12.9750244140625,15.190059765625,13.0362744140625,15.186259765625,13.0975244140625,15.180059765625C13.1262744140625,15.177559765625,13.1550244140625,15.173759765625,13.1837744140625,15.170059765625C13.2400244140625,15.163759765625,13.2975244140625,15.156259765625,13.3537744140625,15.148759765625L13.4437744140625,15.133759765625C13.4975244140625,15.125059765625,13.5512744140625,15.116259765625,13.6037744140625,15.105059765625C13.6362744140625,15.098759765625,13.6675244140625,15.091259765625,13.7000244140625,15.085059765625C13.7500244140625,15.073759765625,13.7988244140625,15.063759765625,13.8488244140625,15.051259765625C13.8838244140625,15.042559765625,13.9188244140625,15.033759765625,13.9538244140625,15.023759765625C13.9988244140625,15.011259765625,14.0438244140625,14.998759765625,14.0875244140625,14.986259765625C14.1263244140625,14.975059765625,14.1638244140625,14.963759765625,14.2013244140625,14.951259765625C14.2413244140625,14.938759765625,14.2813244140625,14.924959765625,14.3213244140625,14.911259765625C14.3613244140625,14.897559765625,14.4025244140625,14.882559765625,14.4425244140625,14.867559765625C14.4575244140625,14.862559765625,14.4725244140625,14.857559765625,14.4875244140625,14.851259765625C17.452524414062502,15.580059765625,19.6488244140625,18.100059765624998,19.9688244140625,21.061259765625L5.1887744140625,21.061259765625Z" fill="#0256FF" fill-opacity="1"/></g><g><path d="M20.40753046875,8.3813134765625C19.71123046875,4.705063476562501,16.40373046875,1.9713134765625,12.57873046875,1.9713134765625C8.766230468749999,1.9713134765625,5.45873046875,4.6950634765625,4.75373046875,8.3588134765625C3.69498046875,8.7950634765625,2.94873046875,9.8375634765625,2.94873046875,11.0500634765625C2.94873046875,12.6551134765625,4.25373046875,13.9601134765625,5.85873046875,13.9601134765625L6.0712304687500005,13.9601134765625C6.48498046875,13.9601134765625,6.8212304687500005,13.6238134765625,6.8212304687500005,13.2101134765625L6.8212304687500005,8.8900634765625C6.8212304687500005,8.567563476562501,6.61748046875,8.2938134765625,6.33123046875,8.187563476562499C7.07623046875,5.4538134765625,9.641230468749999,3.4713134765625,12.57623046875,3.4713134765625C15.51003046875,3.4713134765625,18.06753046875,5.4450634765625,18.81743046875,8.1725634765625C18.50063046875,8.2677534765625,18.28373046875,8.5593534765625,18.28373046875,8.8900634765625L18.28373046875,13.2100134765625C18.28373046875,13.6238134765625,18.620030468750002,13.9600134765625,19.03373046875,13.9600134765625L19.24623046875,13.9600134765625C20.85123046875,13.9600134765625,22.15623046875,12.6550134765625,22.15623046875,11.0500634765625C22.15873046875,9.8575634765625,21.43753046875,8.8300634765625,20.40753046875,8.3813134765625ZM5.322480468749999,12.3538134765625C4.81123046875,12.1426134765625,4.44998046875,11.6375634765625,4.44998046875,11.0500634765625C4.44998046875,10.4625634765625,4.81123046875,9.9575634765625,5.322480468749999,9.7463134765625L5.322480468749999,12.3538134765625ZM19.78623046875,12.3538134765625L19.78623046875,9.7463134765625C20.29753046875,9.9575634765625,20.65873046875,10.4625634765625,20.65873046875,11.0500634765625C20.65873046875,11.6375634765625,20.29753046875,12.1426134765625,19.78623046875,12.3538134765625Z" fill="#2CC069" fill-opacity="1"/></g></g></svg>