<svg xmlns="http://www.w3.org/2000/svg" xmlns:xlink="http://www.w3.org/1999/xlink" fill="none" version="1.1" width="24" height="24" viewBox="0 0 24 24"><defs><clipPath id="master_svg0_617_7808"><rect x="0" y="0" width="24" height="24" rx="0"/></clipPath></defs><g clip-path="url(#master_svg0_617_7808)"><g><path d="M5.1777328125,14.920059375C4.3332228125,14.935159375,3.4980828125,14.741259375,2.7466128125,14.355559375L2.7199528125,14.355559375C0.5283538125,13.171659375,-0.5083231875,10.593939375,0.2532848125,8.222269375C0.2799508125,8.142269375,0.4621728125,7.706709375,2.3688428125,3.155599375C2.5739628125,2.563209375,2.9693228125,2.055336375,3.4932828125,1.7111553750000001C4.0420728125,1.360989375,4.6824428125,1.181562875,5.3332828125,1.195600015L18.7465828125,1.195600015C20.0861828125,1.144923975,21.3075828125,1.957999375,21.7776828125,3.213379375C23.4710828125,7.462269375,23.7199828125,8.102269374999999,23.7688828125,8.235599375C23.9251828125,8.734619375000001,24.0031828125,9.254889375,23.9999828125,9.777819375C24.0379828125,12.637259375,21.7035828125,14.961559375,18.8443828125,14.911159375C17.5923828125,14.913059375,16.3824828125,14.459759375,15.4399828125,13.635559375L15.4088828125,13.608959375L15.3776828125,13.635559375C14.4433828125,14.455759375,13.2431828125,14.909059375,11.9999828125,14.911159375C10.7608828125,14.905359375,9.5651728125,14.454159375,8.6310628125,13.640059375L8.5999528125,13.613359375L8.5688328125,13.640059375C7.6286628125,14.462659375,6.4225528125,14.917359375,5.1732828125,14.920059375L5.1777328125,14.920059375ZM3.3999528125,13.168959375C3.9509628125,13.445459375,4.5613528125,13.582859375,5.1777328125,13.568959375C6.0989828125,13.567159375,6.9882028125,13.230659375,7.6799528125,12.622259375L8.1555028125,12.204459375C8.4107928125,11.984059375,8.7891028125,11.984059375,9.0443928125,12.204459375L9.5199528125,12.622259375C10.9365828125,13.873259375,13.0632828125,13.873259375,14.4799828125,12.622259375L14.9554828125,12.204459375C15.2093828125,11.980159375,15.5905828125,11.980159375,15.8443828125,12.204459375L16.3199828125,12.622259375C17.4351828125,13.640259375,19.0482828125,13.899359375,20.4262828125,13.281759375C21.8041828125,12.664159375,22.6842828125,11.287759375,22.6665828125,9.777819375C22.6662828125,9.396719375,22.6092828125,9.017779375,22.4976828125,8.653379375C22.4088828125,8.417819375,21.2754828125,5.573379375,20.5288828125,3.702269375C20.5273828125,3.691949375,20.5273828125,3.681479375,20.5288828125,3.671159375C20.2453828125,2.9483493750000003,19.5255828125,2.493109375,18.7510828125,2.546709375L5.3332828125,2.546709375C4.5913728125,2.478959375,3.8966028125,2.918439375,3.6399528125,3.617819375L3.6399528125,3.657819375C2.8355028125,5.542269375,1.6443928125,8.377819375,1.5377328125,8.648929375C0.9852088125,10.390169375,1.7483028125,12.278359375,3.3555028125,13.146759375L3.3999528125,13.168959375ZM4.3377328125,22.946759375C2.8102428125,22.946759375,1.5712928125,21.709759375,1.5688428125,20.182259375L1.5688428125,15.822259375C1.5686428125,15.457659375,1.8577828125,15.158659375,2.2221728125,15.146759375C2.5987028125,15.141759375,2.9066128125,15.445659375,2.9066128125,15.822259375L2.9066128125,20.195559375C2.9090628125,20.976859375,3.5431028125,21.608959375,4.3243928125,21.608959375L19.6843828125,21.608959375C20.4646828125,21.604059375,21.0952828125,20.971459375,21.0976828125,20.191159375L21.0976828125,15.746759375C21.0876828125,15.364959375,21.3957828125,15.050759375,21.7776828125,15.053359375C22.1507828125,15.053359375,22.4532828125,15.355859375,22.4532828125,15.728959375L22.4532828125,20.173359375C22.4508828125,21.698159375,21.2179828125,22.934959375,19.6932828125,22.942259375L4.3377328125,22.946759375Z" fill="#0256FF" fill-opacity="1"/></g><g><path d="M5.5554609453125,7.16455078125L18.4443939453125,7.16455078125Q19.1109939453125,7.16455078125,19.1109939453125,7.83121778125Q19.1109939453125,8.49788078125,18.4443939453125,8.49788078125L5.5554609453125,8.49788078125Q4.8887939453125,8.49788078125,4.8887939453125,7.83121778125Q4.8887939453125,7.16455078125,5.5554609453125,7.16455078125Z" fill="#2CC069" fill-opacity="1"/></g></g></svg>