<svg xmlns="http://www.w3.org/2000/svg" xmlns:xlink="http://www.w3.org/1999/xlink" fill="none" version="1.1" width="50" height="25" viewBox="0 0 50 25"><defs><linearGradient x1="-0.00008313357830047607" y1="0.7997905611991882" x2="1.0658414025938658" y2="0.6400135053416838" id="master_svg0_82_14327"><stop offset="0%" stop-color="#D3B17D" stop-opacity="1"/><stop offset="100%" stop-color="#FFDEAA" stop-opacity="1"/></linearGradient><clipPath id="master_svg1_82_02781"><rect x="0" y="0" width="50" height="25" rx="12.5"/></clipPath></defs><g clip-path="url(#master_svg1_82_02781)"><rect x="0" y="0" width="50" height="25" rx="12.5" fill="url(#master_svg0_82_14327)" fill-opacity="1"/><g><path d="M23.362000000000002,8.796L13.651,8.796L13.651,19.131L14.899000000000001,19.131L14.899000000000001,18.39L22.101,18.39L22.101,19.131L23.362000000000002,19.131L23.362000000000002,8.796ZM14.899000000000001,17.180999999999997L14.899000000000001,10.004999999999999L22.101,10.004999999999999L22.101,17.180999999999997L14.899000000000001,17.180999999999997ZM27.236,10.447L27.236,13.073L28.432,13.073L28.432,9.42C28.965,8.887,29.394,8.328,29.732,7.743L28.653,7.236000000000001C28.003,8.302,27.002000000000002,9.225,25.637,10.030999999999999L26.000999999999998,11.266C26.442999999999998,11.006,26.846,10.733,27.236,10.447ZM35.855000000000004,14.672C35.231,15.374,34.568,15.907,33.891999999999996,16.271C33.333,15.803,32.852000000000004,15.27,32.462,14.646L37.141999999999996,14.646L37.141999999999996,13.515L32.189,13.515C32.033,13.047,31.864,12.618,31.695,12.241L30.421,12.449C30.603,12.761,30.785,13.125,30.941,13.515L25.858,13.515L25.858,14.646L29.849,14.646C28.861,15.413,27.378999999999998,16.05,25.416,16.544L26.079,17.636C26.924,17.35,27.704,17.051000000000002,28.406,16.713L28.406,17.974C28.406,18.156,28.198,18.286,27.808,18.39L28.224,19.43C29.641,19.17,31.045,18.832,32.423,18.442L32.202,17.337C31.344,17.597,30.486,17.817999999999998,29.602,18.026L29.602,16.063000000000002C30.226,15.673,30.772,15.244,31.24,14.776C32.449,16.973,34.295,18.481,36.791,19.287L37.532,18.078C36.544,17.817999999999998,35.673,17.454,34.906,16.986C35.582,16.622,36.193,16.141,36.751999999999995,15.556L35.855000000000004,14.672ZM36.7,8.523L34.841,8.861L35.516999999999996,8.184999999999999C35.075,7.859999999999999,34.542,7.548,33.891999999999996,7.236000000000001L33.150999999999996,7.964C33.775,8.276,34.269,8.588000000000001,34.659,8.887L32.67,9.238C32.462,8.666,32.293,8.016,32.15,7.2620000000000005L30.902,7.379C31.084,8.133,31.292,8.809000000000001,31.539,9.433L29.121,9.862L29.29,10.993L32.019999999999996,10.512C32.266999999999996,10.98,32.54,11.370000000000001,32.852000000000004,11.708C33.658,12.566,34.581,13.008,35.620999999999995,13.008C35.985,13.008,36.271,12.865,36.479,12.605C36.674,12.345,36.882000000000005,11.786,37.103,10.940999999999999L35.946,10.447C35.867999999999995,10.993,35.763999999999996,11.383,35.66,11.617C35.582,11.76,35.465,11.838000000000001,35.322,11.838000000000001C34.646,11.825,34.035,11.461,33.463,10.733C33.359,10.603,33.268,10.46,33.177,10.304L36.882000000000005,9.654L36.7,8.523Z" fill="#764701" fill-opacity="1"/></g></g></svg>